<?xml version="1.0" encoding="UTF-8"?>
<svg version="1.1" xmlns="http://www.w3.org/2000/svg" width="768" height="208">
<path d="M0 0 C253.44 0 506.88 0 768 0 C768 68.64 768 137.28 768 208 C514.56 208 261.12 208 0 208 C0 139.36 0 70.72 0 0 Z " fill="#FEFDFD" transform="translate(0,0)"/>
<path d="M0 0 C6.55377097 5.38640924 12.47246635 11.35885127 18.4375 17.375 C19.46525983 18.40778595 20.49325285 19.44033991 21.52148438 20.47265625 C24.01701598 22.97910287 26.50938082 25.4886708 29 28 C33.19625909 26.36221955 35.98676785 23.26676818 39.078125 20.1171875 C39.64956238 19.54292023 40.22099976 18.96865295 40.80975342 18.37698364 C42.62792945 16.5476419 44.43901492 14.71145807 46.25 12.875 C47.48391329 11.63105226 48.71828322 10.3875573 49.953125 9.14453125 C52.97406743 6.10157633 55.98867092 3.05246746 59 0 C60.08839774 0.88967344 61.17044608 1.78711574 62.25 2.6875 C62.85328125 3.18636719 63.4565625 3.68523438 64.078125 4.19921875 C66 6 66 6 70 11 C57.13 23.87 44.26 36.74 31 50 C26.9019084 47.9509542 24.37566981 45.55188169 21.28125 42.30078125 C20.17360532 41.1629944 19.06551914 40.02563724 17.95703125 38.88867188 C16.22038851 37.09607995 14.4879396 35.29988523 12.76318359 33.49584961 C11.09272247 31.75307928 9.40715168 30.02615098 7.71875 28.30078125 C7.20509888 27.75504959 6.69144775 27.20931793 6.16223145 26.64704895 C3.47747479 23.77769312 3.47747479 23.77769312 -0.19335938 22.98120117 C-3.15947812 24.65385165 -4.91058167 27.36073474 -7 30 C-7.99 30.495 -7.99 30.495 -9 31 C-8.42168528 34.62566944 -7.07397393 36.29288004 -4.48999023 38.85058594 C-3.74929794 39.59105164 -3.00860565 40.33151733 -2.24546814 41.09442139 C-1.44129959 41.88310608 -0.63713104 42.67179077 0.19140625 43.484375 C1.01124496 44.29996887 1.83108368 45.11556274 2.67576599 45.95587158 C5.29772762 48.56103106 7.92992448 51.15557079 10.5625 53.75 C12.34117845 55.51363369 14.11918192 57.2779484 15.89648438 59.04296875 C20.2565194 63.36991403 24.62500527 67.68818398 29 72 C32.70044944 70.450168 35.04581087 68.19605329 37.86035156 65.36669922 C38.32910706 64.89823578 38.79786255 64.42977234 39.28082275 63.94711304 C40.82221432 62.40433305 42.35640873 60.85460036 43.890625 59.3046875 C44.96064255 58.23093808 46.03110381 57.15763067 47.10198975 56.08474731 C49.91431879 53.26479548 52.72058889 50.43888846 55.52563477 47.61169434 C58.39105523 44.7257863 61.26217168 41.84555743 64.1328125 38.96484375 C69.76079512 33.31543511 75.38238884 27.65972175 81 22 C85.66874537 25.89976721 90.09127809 29.95214644 94.37109375 34.2734375 C94.93828629 34.84204498 95.50547882 35.41065247 96.08985901 35.99649048 C97.87479913 37.78696236 99.65620256 39.58090484 101.4375 41.375 C102.65796939 42.60049323 103.87867053 43.82575572 105.09960938 45.05078125 C108.06908756 48.03119774 111.03540257 51.01472894 114 54 C109.64304101 59.21063922 105.0641384 64.07416581 100.25048828 68.86303711 C99.49858719 69.61508423 98.7466861 70.36713135 97.97200012 71.14196777 C95.507136 73.60613996 93.03875789 76.06675951 90.5703125 78.52734375 C88.85231025 80.24347927 87.13452988 81.95983694 85.41696167 83.67640686 C80.91143139 88.17813208 76.40290529 92.67684517 71.89373779 97.17492676 C67.28671199 101.77169509 62.68254087 106.37132077 58.078125 110.97070312 C49.05486698 119.98325932 40.02853652 128.99273182 31 138 C27.92321319 136.62792243 25.81719358 135.06507306 23.44390869 132.68441772 C22.75686356 132.00012192 22.06981842 131.31582611 21.36195374 130.61079407 C20.61892502 129.8605748 19.8758963 129.11035553 19.11035156 128.33740234 C18.31972824 127.54707108 17.52910492 126.75673981 16.71452332 125.94245911 C14.10178891 123.32833109 11.49621046 120.70718956 8.890625 118.0859375 C7.08073808 116.27232057 5.27040917 114.45914463 3.45965576 112.64639282 C-0.81862071 108.36125966 -5.09241301 104.07170349 -9.36406636 99.77997172 C-14.22831018 94.89336221 -19.09824386 90.0124401 -23.96866179 85.13198543 C-33.98544799 75.09430211 -43.99507421 65.04950407 -54 55 C-53.04746129 53.88361407 -52.09419504 52.76784888 -51.140625 51.65234375 C-50.60985352 51.03093506 -50.07908203 50.40952637 -49.53222656 49.76928711 C-47.77193996 47.73665533 -46.00717389 45.79211954 -44 44 C-43.34 44 -42.68 44 -42 44 C-40.66796875 45.390625 -40.66796875 45.390625 -39.1875 47.25 C-37.3778409 49.43994978 -35.79976875 51.15915817 -33.5625 52.9375 C-31.39103303 54.6852661 -29.87865471 56.24397064 -28.10717773 58.35546875 C-22.94327485 64.31702181 -17.30910293 69.81474835 -11.72265625 75.375 C-10.54416817 76.55161924 -9.36590347 77.72846225 -8.18785095 78.90551758 C-5.11097192 81.97860807 -2.0311001 85.04868155 1.04943848 88.11810303 C4.20211573 91.26048674 7.35190669 94.40576071 10.50195312 97.55078125 C16.66517254 103.70332807 22.83156165 109.85268562 29 116 C33.09620634 114.37641304 35.83447899 111.43319604 38.87011719 108.35693359 C39.44616196 107.78118088 40.02220673 107.20542816 40.6157074 106.61222839 C42.51421037 104.71233463 44.40553522 102.80546009 46.296875 100.8984375 C47.61351582 99.57806566 48.93059957 98.25813536 50.24810791 96.93862915 C53.71145037 93.46765724 57.16874418 89.9907207 60.62481689 86.51251221 C64.1537998 82.96305615 67.6884642 79.41926799 71.22265625 75.875 C78.15401308 68.92220537 85.07899377 61.96309691 92 55 C91.11032656 53.91160226 90.21288426 52.82955392 89.3125 51.75 C88.81363281 51.14671875 88.31476563 50.5434375 87.80078125 49.921875 C85.61308067 47.49546039 85.61308067 47.49546039 81 44 C64.5 60.5 48 77 31 94 C26.91341949 91.95670974 24.28049355 89.54970719 21.12988281 86.35693359 C20.55383804 85.78118088 19.97779327 85.20542816 19.3842926 84.61222839 C17.48578963 82.71233463 15.59446478 80.80546009 13.703125 78.8984375 C12.38648418 77.57806566 11.06940043 76.25813536 9.75189209 74.93862915 C6.28854963 71.46765724 2.83125582 67.9907207 -0.62481689 64.51251221 C-4.1537998 60.96305615 -7.6884642 57.41926799 -11.22265625 53.875 C-18.15401308 46.92220537 -25.07899377 39.96309691 -32 33 C-28.10023279 28.33125463 -24.04785356 23.90872191 -19.7265625 19.62890625 C-19.15795502 19.06171371 -18.58934753 18.49452118 -18.00350952 17.91014099 C-16.21303764 16.12520087 -14.41909516 14.34379744 -12.625 12.5625 C-11.39950677 11.34203061 -10.17424428 10.12132947 -8.94921875 8.90039062 C-5.96880226 5.93091244 -2.98527106 2.96459743 0 0 Z " fill="#DF272B" transform="translate(78,38)"/>
<path d="M0 0 C9.98017407 8.30694014 16.04704572 18.12734188 18 31 C18.28660968 34.77575609 18.33441623 38.52694169 18.3125 42.3125 C18.30686035 43.32852295 18.3012207 44.3445459 18.29541016 45.39135742 C18.05727469 60.10034877 13.97857487 71.23861823 3.984375 82.18359375 C-6.23998931 91.5425099 -18.21549339 94.35409285 -31.72265625 94.21484375 C-43.33935469 93.45332001 -54.15246844 87.47213101 -62 79 C-73.24933412 64.46769695 -74.22187633 49.78508885 -73 32 C-72.44114979 27.7441407 -71.55982556 23.99188012 -70 20 C-69.54173828 18.74123047 -69.54173828 18.74123047 -69.07421875 17.45703125 C-64.43954667 6.58661855 -55.394715 -1.18505635 -44.76953125 -5.91796875 C-29.66545873 -11.81899567 -13.04185743 -9.85431081 0 0 Z " fill="#242021" transform="translate(418,63)"/>
<path d="M0 0 C1.54359695 0.00848969 1.54359695 0.00848969 3.11837769 0.01715088 C6.36847724 0.03933797 9.61742761 0.08950085 12.8671875 0.140625 C15.08592145 0.16071284 17.30467288 0.17895958 19.5234375 0.1953125 C24.93007205 0.23914436 30.33604764 0.30587631 35.7421875 0.390625 C35.81197428 11.13557413 35.8651436 21.88046853 35.89762402 32.62559891 C35.91322004 37.61604113 35.93434644 42.60632727 35.96850586 47.59667969 C36.00131695 52.42073838 36.01908601 57.24464777 36.02681923 62.06880951 C36.03232395 63.90103248 36.04307235 65.73324811 36.05937767 67.5654068 C36.28339401 93.8020287 36.28339401 93.8020287 28.7421875 102.390625 C18.07658752 112.55947101 2.66462658 110.7594692 -10.9453125 110.578125 C-12.91860958 110.56305177 -14.8919178 110.54936803 -16.86523438 110.53710938 C-21.66303879 110.50431095 -26.46030087 110.45267413 -31.2578125 110.390625 C-31.2578125 105.770625 -31.2578125 101.150625 -31.2578125 96.390625 C-29.48736572 96.37660645 -29.48736572 96.37660645 -27.68115234 96.36230469 C-23.28624252 96.32231852 -18.89202637 96.25653585 -14.49755859 96.18310547 C-12.59856096 96.1549458 -10.6994472 96.13370642 -8.80029297 96.11962891 C-6.06417612 96.09812982 -3.32944798 96.05144492 -0.59375 96 C0.25023346 95.99877136 1.09421692 95.99754272 1.96377563 95.99627686 C7.34012048 95.86382158 10.47745891 94.96609611 14.7421875 91.390625 C16.74903881 88.14143717 16.93116267 84.94451081 17.28515625 81.2109375 C17.37176514 80.30875488 17.45837402 79.40657227 17.54760742 78.47705078 C17.61181885 77.78853027 17.67603027 77.10000977 17.7421875 76.390625 C16.40426147 76.41419067 16.40426147 76.41419067 15.03930664 76.43823242 C11.69012491 76.48974492 8.34137184 76.52715947 4.99194336 76.55541992 C3.54981795 76.57039008 2.10773714 76.59077368 0.66577148 76.61694336 C-9.74776522 76.80103014 -19.09891599 76.52136859 -27.6875 69.91015625 C-34.71738969 63.1076013 -35.42689876 55.66954857 -35.60523987 46.27955627 C-35.62775831 44.85333018 -35.64689182 43.4270471 -35.6628418 42.00073242 C-35.68430531 40.56461366 -35.71826933 39.12862152 -35.76538086 37.69311523 C-36.11771019 26.82105961 -34.74421108 17.87468516 -27.44799805 9.25170898 C-19.58906869 1.71318898 -10.57856786 -0.22366221 0 0 Z " fill="#242122" transform="translate(579.2578125,78.609375)"/>
<path d="M0 0 C2.25779666 0.02009523 4.51561059 0.03834065 6.7734375 0.0546875 C12.26605629 0.09844395 17.75783507 0.16730583 23.25 0.25 C23.25 4.87 23.25 9.49 23.25 14.25 C21.26021118 14.26401855 21.26021118 14.26401855 19.23022461 14.27832031 C14.28929574 14.31831614 9.34898323 14.38410215 4.40844727 14.45751953 C2.27376244 14.48567349 0.13897444 14.50691565 -1.99584961 14.52099609 C-5.07198694 14.54250253 -8.14689114 14.58919337 -11.22265625 14.640625 C-12.64494286 14.64246796 -12.64494286 14.64246796 -14.09596252 14.64434814 C-20.11553926 14.77617524 -23.87991931 15.60999334 -28.75 19.25 C-29.96854309 22.9733261 -30.14087805 25.1052857 -28.875 28.8125 C-21.88606522 36.82921931 -10.73562666 40.84226806 -1.34375 45.30664062 C8.51841528 50.10522922 20.64962534 56.72035702 25.16015625 67.40625 C27.05517782 74.53454307 26.85695371 82.03374357 23.125 88.5 C18.17940366 95.49448625 12.59722004 99.34729534 4.25 101.25 C0.30276686 101.62244208 -3.60456859 101.60154623 -7.56640625 101.54296875 C-8.66347397 101.53872391 -9.76054169 101.53447906 -10.89085388 101.53010559 C-14.36499478 101.51342927 -17.83853699 101.47579717 -21.3125 101.4375 C-23.68033011 101.42243891 -26.0481694 101.40875301 -28.41601562 101.39648438 C-34.19423804 101.36356187 -39.97201782 101.31185597 -45.75 101.25 C-45.75 96.63 -45.75 92.01 -45.75 87.25 C-44.45376709 87.23541748 -43.15753418 87.22083496 -41.82202148 87.20581055 C-36.99297092 87.14764901 -32.16437793 87.07041709 -27.33569336 86.98754883 C-25.24950613 86.95438339 -23.16323098 86.92632557 -21.0769043 86.90356445 C-18.07042121 86.86986431 -15.06473775 86.81754032 -12.05859375 86.76171875 C-10.66911781 86.75213387 -10.66911781 86.75213387 -9.25157166 86.74235535 C-3.69248908 86.61736748 0.35669737 85.96778894 5.25 83.25 C7.59549674 79.73175489 7.82991403 78.39224306 7.25 74.25 C5.62266674 72.13446676 4.31646034 70.86516441 2.25 69.25 C1.33154297 68.49976562 1.33154297 68.49976562 0.39453125 67.734375 C-5.20159055 63.49518893 -11.21752233 60.43902173 -17.5 57.375 C-42.14414753 45.28973519 -42.14414753 45.28973519 -46.890625 36.96875 C-49.14575392 29.83434213 -49.23723329 20.53684094 -46.1875 13.625 C-41.62406245 6.45613963 -35.14786767 2.55747177 -26.93334961 0.61120605 C-18.13199527 -0.84486056 -8.88448646 -0.13780444 0 0 Z " fill="#231F20" transform="translate(262.75,53.75)"/>
<path d="M0 0 C6.99328044 4.61159561 10.39823363 10.1947009 13 18 C13.28664578 22.03676337 13.27778208 26.07920535 13.3125 30.125 C13.34150391 31.2284375 13.37050781 32.331875 13.40039062 33.46875 C13.47937379 43.70010791 10.88907274 50.75255492 3.9375 58.2734375 C-2.18627233 63.73050881 -9.1514937 65.3294114 -17.16015625 65.203125 C-25.58623561 64.60043432 -31.49637146 60.27283646 -37 54 C-38.70715764 51.09689401 -39.94237896 48.1917492 -41 45 C-41.495 43.515 -41.495 43.515 -42 42 C-42.28423122 38.31753948 -42.27773345 34.62970721 -42.3125 30.9375 C-42.34150391 29.93783203 -42.37050781 28.93816406 -42.40039062 27.90820312 C-42.47850183 18.66103806 -40.2425374 10.45340363 -33.84765625 3.53515625 C-23.37173962 -5.16893516 -11.9209062 -5.88236856 0 0 Z " fill="#FCFCFC" transform="translate(405,75)"/>
<path d="M0 0 C5.61 0 11.22 0 17 0 C17 2.31 17 4.62 17 7 C17.72445312 6.66226563 18.44890625 6.32453125 19.1953125 5.9765625 C20.16210938 5.53054687 21.12890625 5.08453125 22.125 4.625 C23.55199219 3.96371094 23.55199219 3.96371094 25.0078125 3.2890625 C34.73892228 -0.90319106 45.65952419 -1.64576273 56.06640625 0.6875 C62.47061302 3.28819311 65.72291599 7.40022184 68.75 13.5625 C70.49256727 18.35455999 71.12522441 22.52738211 71.11352539 27.61645508 C71.11341209 29.26760063 71.11341209 29.26760063 71.11329651 30.95210266 C71.10813522 32.1293541 71.10297394 33.30660553 71.09765625 34.51953125 C71.0962413 35.73323898 71.09482635 36.94694672 71.09336853 38.19743347 C71.08777665 42.06914752 71.07522558 45.94080347 71.0625 49.8125 C71.05748395 52.43945229 71.05292123 55.06640549 71.04882812 57.69335938 C71.03780987 64.12892859 71.02055075 70.56445445 71 77 C65.06 77 59.12 77 53 77 C52.98541748 75.39560059 52.97083496 73.79120117 52.95581055 72.13818359 C52.89777973 66.17799747 52.8205461 60.21818723 52.73754883 54.25830078 C52.70432219 51.6802379 52.67628327 49.10210267 52.65356445 46.52392578 C52.61997793 42.81511646 52.56765756 39.1069688 52.51171875 35.3984375 C52.50532883 34.24822113 52.4989389 33.09800476 52.49235535 31.91293335 C52.38861353 26.24912088 52.30504613 21.83863665 49 17 C45.68747974 14.44906364 42.07296349 14.6346254 38 14.5625 C36.1746875 14.50255859 36.1746875 14.50255859 34.3125 14.44140625 C28.52028776 14.99956934 28.52028776 14.99956934 18 20 C17.67 38.48 17.34 56.96 17 76 C11.39 76 5.78 76 0 76 C0 50.92 0 25.84 0 0 Z " fill="#242021" transform="translate(672,79)"/>
<path d="M0 0 C0 4.62 0 9.24 0 14 C-1.7015625 14.05607422 -1.7015625 14.05607422 -3.4375 14.11328125 C-14.64693948 14.29102049 -14.64693948 14.29102049 -25 18 C-28.90516458 23.55424113 -28.4740431 29.43708193 -28.51171875 35.9609375 C-28.52966995 37.10664215 -28.54762115 38.2523468 -28.56611633 39.43276978 C-28.62015437 43.08014279 -28.65409518 46.7273854 -28.6875 50.375 C-28.7206787 52.8528827 -28.75516887 55.33074821 -28.79101562 57.80859375 C-28.8758776 63.87230167 -28.94272053 69.93597133 -29 76 C-34.61 76 -40.22 76 -46 76 C-46.09067331 68.57594856 -46.16392899 61.15220397 -46.20724869 53.72771454 C-46.22804893 50.27952868 -46.25622536 46.83174406 -46.30175781 43.38378906 C-46.35387244 39.41215965 -46.37300789 35.44068793 -46.390625 31.46875 C-46.41127014 30.24136108 -46.43191528 29.01397217 -46.45318604 27.74938965 C-46.45544718 19.06328125 -45.26236755 13.17970485 -39.0625 6.75 C-27.74248154 -1.91762919 -13.43187493 -0.43367489 0 0 Z " fill="#221E1F" transform="translate(495,79)"/>
<path d="M0 0 C0 15.84 0 31.68 0 48 C-24 48 -24 48 -31 44 C-35.91350445 38.5951451 -35.2157839 32.6530987 -35.25 25.75 C-35.270625 24.72519531 -35.29125 23.70039062 -35.3125 22.64453125 C-35.35135754 15.09645476 -34.62134029 10.10421876 -29.625 4.1875 C-20.70329367 -3.24725527 -12.64027799 0 0 0 Z " fill="#FDFDFD" transform="translate(597,94)"/>
<path d="M0 0 C5.94 0 11.88 0 18 0 C18 25.41 18 50.82 18 77 C12.06 77 6.12 77 0 77 C0 51.59 0 26.18 0 0 Z " fill="#282425" transform="translate(632,79)"/>
<path d="M0 0 C5.94 0 11.88 0 18 0 C18 25.08 18 50.16 18 76 C12.06 76 6.12 76 0 76 C0 50.92 0 25.84 0 0 Z " fill="#232021" transform="translate(509,79)"/>
<path d="M0 0 C5.94 0 11.88 0 18 0 C18 25.08 18 50.16 18 76 C12.06 76 6.12 76 0 76 C0 50.92 0 25.84 0 0 Z " fill="#242021" transform="translate(309,79)"/>
<path d="M0 0 C5.94 0 11.88 0 18 0 C18 6.27 18 12.54 18 19 C12.06 19 6.12 19 0 19 C0 12.73 0 6.46 0 0 Z " fill="#312E2F" transform="translate(632,51)"/>
<path d="M0 0 C5.94 0 11.88 0 18 0 C18 5.94 18 11.88 18 18 C12.06 18 6.12 18 0 18 C0 12.06 0 6.12 0 0 Z " fill="#262324" transform="translate(509,51)"/>
<path d="M0 0 C5.94 0 11.88 0 18 0 C18 5.94 18 11.88 18 18 C12.06 18 6.12 18 0 18 C0 12.06 0 6.12 0 0 Z " fill="#272425" transform="translate(309,51)"/>
<path d="M0 0 C0.66 0.33 1.32 0.66 2 1 C-6.25 9.25 -14.5 17.5 -23 26 C-26.84281736 24.07859132 -28.80431927 22.4073184 -31.75 19.375 C-32.54921875 18.55773437 -33.3484375 17.74046875 -34.171875 16.8984375 C-34.77515625 16.27195312 -35.3784375 15.64546875 -36 15 C-32.89448334 15 -31.64738916 15.5393715 -29 17 C-29 17.66 -29 18.32 -29 19 C-28.34 19 -27.68 19 -27 19 C-26.67 19.99 -26.34 20.98 -26 22 C-21.22622896 21.54766931 -19.21537575 19.68691871 -15.91796875 16.30859375 C-15.45892654 15.84389175 -14.99988434 15.37918976 -14.52693176 14.90040588 C-13.07075265 13.42193317 -11.62914096 11.93013843 -10.1875 10.4375 C-9.19949902 9.42942493 -8.21057596 8.4222527 -7.22070312 7.41601562 C-4.80303607 4.95437546 -2.39823416 2.48059327 0 0 Z " fill="#C0343A" transform="translate(132,106)"/>
<path d="M0 0 C0.33 0.99 0.66 1.98 1 3 C-3.33333333 7.33333333 -7.66666667 11.66666667 -12 16 C-12.556875 16.598125 -13.11375 17.19625 -13.6875 17.8125 C-15 19 -15 19 -17 19 C-17.24492187 19.58265625 -17.48984375 20.1653125 -17.7421875 20.765625 C-19.20435874 23.36302236 -20.84740414 24.83975831 -23.125 26.75 C-24.21167969 27.67039062 -24.21167969 27.67039062 -25.3203125 28.609375 C-25.87460938 29.06828125 -26.42890625 29.5271875 -27 30 C-27.66 29.67 -28.32 29.34 -29 29 C-19.43 19.43 -9.86 9.86 0 0 Z " fill="#FEE6E7" transform="translate(187,97)"/>
<path d="M0 0 C4.15358254 3.43469325 7.78875342 6.63270466 11 11 C10.01 11.66 9.02 12.32 8 13 C7.71125 12.195625 7.4225 11.39125 7.125 10.5625 C6.26737432 7.8673532 6.26737432 7.8673532 4 7 C4 6.34 4 5.68 4 5 C1.36 5.33 -1.28 5.66 -4 6 C-4.1546875 6.9590625 -4.1546875 6.9590625 -4.3125 7.9375 C-4.539375 8.618125 -4.76625 9.29875 -5 10 C-5.99 10.33 -6.98 10.66 -8 11 C-8.33 11.99 -8.66 12.98 -9 14 C-10.32 13.67 -11.64 13.34 -13 13 C-8.71 8.71 -4.42 4.42 0 0 Z " fill="#C8373B" transform="translate(137,38)"/>
<path d="M0 0 C0.33 0.99 0.66 1.98 1 3 C-0.2065625 3.4021875 -0.2065625 3.4021875 -1.4375 3.8125 C-2.283125 4.204375 -3.12875 4.59625 -4 5 C-4.33 5.99 -4.66 6.98 -5 8 C-5.66 8 -6.32 8 -7 8 C-7 9.65 -7 11.3 -7 13 C-6.34 13 -5.68 13 -5 13 C-4.67 13.99 -4.34 14.98 -4 16 C-2.68 16 -1.36 16 0 16 C0.33 18.31 0.66 20.62 1 23 C-3.88049925 19.0580583 -8.0580583 14.88049925 -12 10 C-10.38113585 8.32737283 -8.7547271 6.66204463 -7.125 5 C-6.22007813 4.071875 -5.31515625 3.14375 -4.3828125 2.1875 C-2 0 -2 0 0 0 Z " fill="#C84043" transform="translate(36,82)"/>
<path d="M0 0 C0 4.34858565 -2.695041 6.22376631 -5.5625 9.1875 C-6.67039833 10.35179274 -7.77717354 11.51715525 -8.8828125 12.68359375 C-9.42067383 13.24933105 -9.95853516 13.81506836 -10.51269531 14.39794922 C-12.94725434 17.02033536 -15.18878091 19.79962591 -17.40234375 22.609375 C-19.48907356 24.42569728 -21.29650526 24.65234247 -24 25 C-24 24.34 -24 23.68 -24 23 C-22.54882812 21.57006836 -22.54882812 21.57006836 -20.53125 19.90234375 C-15.95144237 16.00809374 -11.72332288 11.83665918 -7.5 7.5625 C-6.77296875 6.83095703 -6.0459375 6.09941406 -5.296875 5.34570312 C-3.52890501 3.56610176 -1.76333622 1.78419082 0 0 Z " fill="#FEE0E0" transform="translate(131,109)"/>
<path d="M0 0 C1 3 1 3 -0.17578125 5.3828125 C-4.95760819 12.24324943 -10.87722366 18.17084368 -17.2734375 23.52734375 C-18.93687488 24.94615799 -20.47587289 26.43379577 -22 28 C-22.66 27.67 -23.32 27.34 -24 27 C-16.74 19.74 -9.48 12.48 -2 5 C-2.66 3.68 -3.32 2.36 -4 1 C-2 0 -2 0 0 0 Z " fill="#C63338" transform="translate(172,88)"/>
<path d="M0 0 C1.32 0.66 2.64 1.32 4 2 C-0.29 6.29 -4.58 10.58 -9 15 C-9.66 14.34 -10.32 13.68 -11 13 C-10.625 10.875 -10.625 10.875 -10 9 C-9.67 9.66 -9.34 10.32 -9 11 C-6.59734338 10.07350081 -6.59734338 10.07350081 -5.625 6.625 C-4.05631991 3.12563673 -3.21890769 1.88694589 0 0 Z " fill="#D22C2E" transform="translate(141,50)"/>
<path d="M0 0 C0.33 0.66 0.66 1.32 1 2 C-0.25 4.625 -0.25 4.625 -2 7 C-2.99 7 -3.98 7 -5 7 C-5.268125 7.804375 -5.53625 8.60875 -5.8125 9.4375 C-6.204375 10.283125 -6.59625 11.12875 -7 12 C-7.99 12.33 -8.98 12.66 -10 13 C-10 13.66 -10 14.32 -10 15 C-12.31 15.33 -14.62 15.66 -17 16 C-17 15.01 -17 14.02 -17 13 C-15.68 13 -14.36 13 -13 13 C-11.27849801 11.82718105 -11.27849801 11.82718105 -9.765625 10.15625 C-9.19199219 9.56972656 -8.61835937 8.98320313 -8.02734375 8.37890625 C-7.44082031 7.75886719 -6.85429688 7.13882813 -6.25 6.5 C-5.34701172 5.56994141 -5.34701172 5.56994141 -4.42578125 4.62109375 C-2.94136366 3.08955179 -1.46945655 1.54590226 0 0 Z " fill="#C8383D" transform="translate(123,52)"/>
<path d="M0 0 C0.33 0.66 0.66 1.32 1 2 C-0.25 4.5625 -0.25 4.5625 -2 7 C-2.99 7.33 -3.98 7.66 -5 8 C-5.2475 8.5775 -5.495 9.155 -5.75 9.75 C-7.65600261 13.18080471 -10.76233148 14.88772428 -14 17 C-14.66 16.67 -15.32 16.34 -16 16 C-10.72 10.72 -5.44 5.44 0 0 Z " fill="#C93135" transform="translate(131,132)"/>
<path d="M0 0 C0.33 0.66 0.66 1.32 1 2 C-0.40769635 3.79872312 -1.82651003 5.58874968 -3.25 7.375 C-4.03890625 8.37273438 -4.8278125 9.37046875 -5.640625 10.3984375 C-7.80245056 12.7821723 -9.12768652 13.76193384 -12 15 C-13.73425773 17.03317007 -13.73425773 17.03317007 -15 19 C-15.99 18.67 -16.98 18.34 -18 18 C-12.06 12.06 -6.12 6.12 0 0 Z " fill="#FEE0E0" transform="translate(147,49)"/>
<path d="M0 0 C0.33 0.66 0.66 1.32 1 2 C-0.82639592 5.84504405 -2.3067291 7.15336455 -6 9 C-6.45375 9.825 -6.9075 10.65 -7.375 11.5 C-9.47554224 14.73160345 -11.34013513 15.10536636 -15 16 C-10.30233025 10.33870569 -5.25276628 5.14771096 0 0 Z " fill="#CA3235" transform="translate(147,116)"/>
<path d="M0 0 C4.56030824 3.80475422 8.85089392 7.74969621 13 12 C15.95409701 10.62845496 18.44008376 9.01136276 21 7 C19.7175023 9.86095641 18.54656011 12.11365918 16 14 C13.6875 14.625 13.6875 14.625 11 14 C9.33341048 12.35099981 7.92809412 10.59473024 6.4921875 8.7421875 C4.96828145 6.77154245 4.96828145 6.77154245 2.125 5.3125 C1.42375 4.879375 0.7225 4.44625 0 4 C0 2.68 0 1.36 0 0 Z " fill="#C33336" transform="translate(94,142)"/>
<path d="M0 0 C1.32 1.32 2.64 2.64 4 4 C0.04 7.96 -3.92 11.92 -8 16 C-8.66 14.68 -9.32 13.36 -10 12 C-9.01 12 -8.02 12 -7 12 C-7 11.34 -7 10.68 -7 10 C-4 8 -4 8 -1 7 C-0.67 4.69 -0.34 2.38 0 0 Z " fill="#C53238" transform="translate(188,89)"/>
<path d="M0 0 C0.66 0.33 1.32 0.66 2 1 C1.319375 1.5775 0.63875 2.155 -0.0625 2.75 C-1.0215625 3.86375 -1.0215625 3.86375 -2 5 C-1.66563669 8.39936032 -0.18346806 10.26509917 2.0625 12.75 C2.61035156 13.36359375 3.15820312 13.9771875 3.72265625 14.609375 C4.14417969 15.06828125 4.56570312 15.5271875 5 16 C2.33333333 14.66666667 -0.33333333 13.33333333 -3 12 C-3 13.32 -3 14.64 -3 16 C-3.66 16 -4.32 16 -5 16 C-5 11.71 -5 7.42 -5 3 C-3.68 3 -2.36 3 -1 3 C-0.67 2.01 -0.34 1.02 0 0 Z " fill="#CB3234" transform="translate(71,64)"/>
<path d="M0 0 C1.1055189 0.93590504 2.20935453 1.87379858 3.3125 2.8125 C3.92738281 3.33457031 4.54226562 3.85664062 5.17578125 4.39453125 C6.85424679 5.87172469 8.43882034 7.40039131 10 9 C13.43595166 7.47291037 16.11912454 5.40072955 19 3 C19 4.98 19 6.96 19 9 C17.33333333 9.33333333 15.66666667 9.66666667 14 10 C13.195625 10.28875 12.39125 10.5775 11.5625 10.875 C9 11 9 11 5.875 8.8125 C3.62696315 6.72669262 1.62481912 4.61776414 0 2 C0 1.34 0 0.68 0 0 Z " fill="#C23539" transform="translate(97,101)"/>
<path d="M0 0 C2.475 0.495 2.475 0.495 5 1 C5 1.66 5 2.32 5 3 C5.66 3 6.32 3 7 3 C7.33 3.66 7.66 4.32 8 5 C10.01669827 6.13350534 10.01669827 6.13350534 12 7 C12 8.65 12 10.3 12 12 C7.47384007 8.32167983 3.60575001 4.58913637 0 0 Z " fill="#C73438" transform="translate(92,72)"/>
<path d="M0 0 C0.375 2.1875 0.375 2.1875 0 5 C-2.75 7.875 -2.75 7.875 -6 10 C-8.203125 9.6328125 -8.203125 9.6328125 -10 9 C-8.52386015 7.49702124 -7.04400843 5.99768715 -5.5625 4.5 C-4.73878906 3.6646875 -3.91507812 2.829375 -3.06640625 1.96875 C-1 0 -1 0 0 0 Z " fill="#CD373B" transform="translate(68,49)"/>
<path d="M0 0 C0.33 0.99 0.66 1.98 1 3 C0.33613281 3.59167969 -0.32773438 4.18335937 -1.01171875 4.79296875 C-5.44938962 8.7641983 -9.85786795 12.71979688 -14 17 C-14.66 16.67 -15.32 16.34 -16 16 C-10.72 10.72 -5.44 5.44 0 0 Z " fill="#FFDBDB" transform="translate(148,92)"/>
<path d="M0 0 C0 4.13781054 -1.71509607 5.20919996 -4.5 8.1875 C-5.3353125 9.08855469 -6.170625 9.98960937 -7.03125 10.91796875 C-8.00578125 11.94857422 -8.00578125 11.94857422 -9 13 C-9.99 12.67 -10.98 12.34 -12 12 C-8.04 8.04 -4.08 4.08 0 0 Z " fill="#FFE3E2" transform="translate(157,127)"/>
<path d="M0 0 C0.33 0.66 0.66 1.32 1 2 C-1.14712285 6.96522159 -4.6252119 9.11098899 -9 12 C-8.67 10.68 -8.34 9.36 -8 8 C-7.34 8 -6.68 8 -6 8 C-5.7525 7.4225 -5.505 6.845 -5.25 6.25 C-3.83316683 3.6997003 -2.12372463 1.98214299 0 0 Z " fill="#F8D7D6" transform="translate(77,60)"/>
<path d="M0 0 C2.475 0.495 2.475 0.495 5 1 C5.33 2.32 5.66 3.64 6 5 C6.99 5 7.98 5 9 5 C10.75 7.375 10.75 7.375 12 10 C11.67 10.66 11.34 11.32 11 12 C9.16364422 10.19047409 7.33083792 8.37759362 5.5 6.5625 C4.97535156 6.04623047 4.45070313 5.52996094 3.91015625 4.99804688 C2.58775448 3.68423213 1.29164432 2.34406495 0 1 C0 0.67 0 0.34 0 0 Z " fill="#C5373B" transform="translate(84,108)"/>
<path d="M0 0 C0.33 0.66 0.66 1.32 1 2 C-0.07165569 5.21496708 -0.88376774 6.08462512 -3.375 8.25 C-3.98085937 8.79140625 -4.58671875 9.3328125 -5.2109375 9.890625 C-5.80132812 10.25671875 -6.39171875 10.6228125 -7 11 C-7.99 10.67 -8.98 10.34 -10 10 C-6.7 6.7 -3.4 3.4 0 0 Z " fill="#FEDEDF" transform="translate(124,72)"/>
<path d="M0 0 C1.65 0 3.3 0 5 0 C5 0.66 5 1.32 5 2 C5.99 2.33 6.98 2.66 8 3 C8 4.65 8 6.3 8 8 C6.85073734 7.04578192 5.70569459 6.08647955 4.5625 5.125 C3.92441406 4.59132812 3.28632812 4.05765625 2.62890625 3.5078125 C1 2 1 2 0 0 Z " fill="#C93738" transform="translate(70,138)"/>
<path d="M0 0 C4.31320068 1.75722991 7.9031084 4.8062168 10 9 C7.1875 8.8125 7.1875 8.8125 4 8 C1.99466598 5.37232094 1.044037 3.13211099 0 0 Z " fill="#CF474B" transform="translate(37,85)"/>
<path d="M0 0 C0 3.51716303 -0.82445585 4.37121748 -3 7 C-2.34 7 -1.68 7 -1 7 C-0.67 8.65 -0.34 10.3 0 12 C-1.98 10.35 -3.96 8.7 -6 7 C-4.02 4.69 -2.04 2.38 0 0 Z " fill="#C14147" transform="translate(52,64)"/>
<path d="M0 0 C0.99 0.33 1.98 0.66 3 1 C0.69 3.31 -1.62 5.62 -4 8 C-4.66 6.68 -5.32 5.36 -6 4 C-5.34 3.34 -4.68 2.68 -4 2 C-3.67 2.33 -3.34 2.66 -3 3 C-2.01 2.01 -1.02 1.02 0 0 Z " fill="#C93035" transform="translate(145,136)"/>
<path d="M0 0 C1.12894876 0.93274109 2.25300876 1.87140122 3.375 2.8125 C4.00148438 3.33457031 4.62796875 3.85664062 5.2734375 4.39453125 C7 6 7 6 9 9 C7.35 8.67 5.7 8.34 4 8 C4 7.01 4 6.02 4 5 C2.68 4.67 1.36 4.34 0 4 C0 2.68 0 1.36 0 0 Z M-1 5 C1 6 1 6 1 6 Z " fill="#C92E34" transform="translate(76,80)"/>
<path d="M0 0 C0 3.49889647 -0.54120332 4.0553603 -2.75 6.625 C-3.26046875 7.23601562 -3.7709375 7.84703125 -4.296875 8.4765625 C-6.19607419 10.17538747 -7.51275949 10.5998787 -10 11 C-6.79239749 7.19364503 -3.59253891 3.45436433 0 0 Z " fill="#FFDCDA" transform="translate(119,165)"/>
<path d="M0 0 C0.33 0.66 0.66 1.32 1 2 C0.0625 4.125 0.0625 4.125 -1 6 C-1.66 6 -2.32 6 -3 6 C-3 6.66 -3 7.32 -3 8 C-4.65 8.33 -6.3 8.66 -8 9 C-7.04270084 7.87411986 -6.08412105 6.7493285 -5.125 5.625 C-4.59132812 4.99851562 -4.05765625 4.37203125 -3.5078125 3.7265625 C-2.38567993 2.44163349 -1.20628025 1.20628025 0 0 Z " fill="#C93235" transform="translate(148,71)"/>
<path d="M0 0 C0.33 0.99 0.66 1.98 1 3 C-0.98 4.98 -2.96 6.96 -5 9 C-5.99 8.67 -6.98 8.34 -8 8 C-5.36 5.36 -2.72 2.72 0 0 Z " fill="#FFE2E0" transform="translate(135,149)"/>
<path d="M0 0 C4 0 4 0 6 1 C2.535 3.97 2.535 3.97 -1 7 C-1.33 5.68 -1.66 4.36 -2 3 C-1.34 2.01 -0.68 1.02 0 0 Z " fill="#CA3134" transform="translate(173,105)"/>
<path d="M0 0 C2.875 0.25 2.875 0.25 6 1 C7.4375 2.875 7.4375 2.875 8 5 C7.67 5.99 7.34 6.98 7 8 C5.83035398 6.8572081 4.66435444 5.71068285 3.5 4.5625 C2.8503125 3.92441406 2.200625 3.28632813 1.53125 2.62890625 C0 1 0 1 0 0 Z " fill="#C8373C" transform="translate(92,160)"/>
<path d="M0 0 C1.65 0.33 3.3 0.66 5 1 C3.02 3.31 1.04 5.62 -1 8 C-1 5.16032769 -0.59732819 2.76264289 0 0 Z " fill="#CA3034" transform="translate(123,155)"/>
<path d="M0 0 C0.33 0.99 0.66 1.98 1 3 C-1.31 4.98 -3.62 6.96 -6 9 C-6.66 8.67 -7.32 8.34 -8 8 C-5.36 5.36 -2.72 2.72 0 0 Z " fill="#FFE1E1" transform="translate(144,140)"/>
<path d="M0 0 C7.48291572 6.15034169 7.48291572 6.15034169 10 10 C4.84114953 7.96361165 2.68261425 6.99941747 0 2 C0 1.34 0 0.68 0 0 Z " fill="#C73032" transform="translate(59,107)"/>
<path d="M0 0 C0.66 0.33 1.32 0.66 2 1 C0.35 2.65 -1.3 4.3 -3 6 C-6.875 4.25 -6.875 4.25 -8 2 C-5.525 2.495 -5.525 2.495 -3 3 C-3 2.34 -3 1.68 -3 1 C-2.01 0.67 -1.02 0.34 0 0 Z " fill="#C23337" transform="translate(112,82)"/>
<path d="M0 0 C1.5 1.1875 1.5 1.1875 3 3 C3.1875 5.6875 3.1875 5.6875 3 8 C1.02 6.35 -0.96 4.7 -3 3 C-2.01 2.01 -1.02 1.02 0 0 Z " fill="#CF3034" transform="translate(87,62)"/>
<path d="M0 0 C-1.485 2.475 -1.485 2.475 -3 5 C-3.99 4.67 -4.98 4.34 -6 4 C-6.33 3.01 -6.66 2.02 -7 1 C-4.53721199 -0.231394 -2.7204945 -0.07159196 0 0 Z " fill="#2D292A" transform="translate(569,80)"/>
<path d="M0 0 C2.64 0 5.28 0 8 0 C6.515 1.98 6.515 1.98 5 4 C1.125 2.25 1.125 2.25 0 0 Z " fill="#C3343A" transform="translate(104,172)"/>
<path d="M0 0 C1.32 0.33 2.64 0.66 4 1 C1.36 3.64 -1.28 6.28 -4 9 C-4 6 -4 6 -2.5625 4.5 C-2.046875 4.005 -1.53125 3.51 -1 3 C-0.67 2.01 -0.34 1.02 0 0 Z " fill="#C43237" transform="translate(133,147)"/>
<path d="M0 0 C0.66 0.33 1.32 0.66 2 1 C-0.64 3.64 -3.28 6.28 -6 9 C-6.33 7.68 -6.66 6.36 -7 5 C-6.21625 4.54625 -5.4325 4.0925 -4.625 3.625 C-1.96301969 2.11571258 -1.96301969 2.11571258 0 0 Z " fill="#C23338" transform="translate(170,112)"/>
<path d="M0 0 C0.33 0.66 0.66 1.32 1 2 C0.67 2.66 0.34 3.32 0 4 C0.66 4.33 1.32 4.66 2 5 C-3.625 7 -3.625 7 -7 7 C-4.69 4.69 -2.38 2.38 0 0 Z " fill="#C63438" transform="translate(131,88)"/>
<path d="M0 0 C1.17539996 0.92652701 2.34010577 1.86663387 3.5 2.8125 C4.1496875 3.33457031 4.799375 3.85664062 5.46875 4.39453125 C7 6 7 6 7 9 C6.01 9.495 6.01 9.495 5 10 C4.731875 9.236875 4.46375 8.47375 4.1875 7.6875 C3.04199033 5.09503074 2.00288478 3.91184456 0 2 C0 1.34 0 0.68 0 0 Z " fill="#BB353A" transform="translate(140,41)"/>
<path d="M0 0 C0.66 0.33 1.32 0.66 2 1 C-0.31 3.31 -2.62 5.62 -5 8 C-5.33 7.34 -5.66 6.68 -6 6 C-5.67 5.34 -5.34 4.68 -5 4 C-4.34 4 -3.68 4 -3 4 C-3 3.01 -3 2.02 -3 1 C-2.01 0.67 -1.02 0.34 0 0 Z " fill="#C53136" transform="translate(118,164)"/>
<path d="M0 0 C1.32 0.33 2.64 0.66 4 1 C4 1.66 4 2.32 4 3 C4.99 3 5.98 3 7 3 C7.33 4.65 7.66 6.3 8 8 C6.85073734 7.04578192 5.70569459 6.08647955 4.5625 5.125 C3.92441406 4.59132812 3.28632812 4.05765625 2.62890625 3.5078125 C1 2 1 2 0 0 Z " fill="#F8CFCD" transform="translate(90,137)"/>
<path d="M0 0 C1.32 0.33 2.64 0.66 4 1 C4 1.66 4 2.32 4 3 C4.99 3 5.98 3 7 3 C7.33 4.65 7.66 6.3 8 8 C6.85073734 7.04578192 5.70569459 6.08647955 4.5625 5.125 C3.92441406 4.59132813 3.28632812 4.05765625 2.62890625 3.5078125 C1 2 1 2 0 0 Z " fill="#F7CDCC" transform="translate(74,121)"/>
<path d="M0 0 C0.66 0.33 1.32 0.66 2 1 C-0.31 3.31 -2.62 5.62 -5 8 C-5.33 6.68 -5.66 5.36 -6 4 C-4.02 2.68 -2.04 1.36 0 0 Z " fill="#C33236" transform="translate(147,91)"/>
<path d="M0 0 C1.2065625 0.0309375 1.2065625 0.0309375 2.4375 0.0625 C0.79580472 2.08304804 -0.87161778 4.08293058 -2.5625 6.0625 C-2.8925 6.0625 -3.2225 6.0625 -3.5625 6.0625 C-3.605221 4.39638095 -3.60313832 2.72867115 -3.5625 1.0625 C-2.5625 0.0625 -2.5625 0.0625 0 0 Z " fill="#C92F31" transform="translate(152.5625,84.9375)"/>
<path d="M0 0 C4.75 1.875 4.75 1.875 7 3 C7.625 5.5625 7.625 5.5625 8 8 C6.85073734 7.04578192 5.70569459 6.08647955 4.5625 5.125 C3.92441406 4.59132813 3.28632813 4.05765625 2.62890625 3.5078125 C1 2 1 2 0 0 Z " fill="#C53236" transform="translate(160,81)"/>
<path d="M0 0 C0.66 0.33 1.32 0.66 2 1 C-0.31 3.31 -2.62 5.62 -5 8 C-5.33 6.68 -5.66 5.36 -6 4 C-5.195625 3.525625 -4.39125 3.05125 -3.5625 2.5625 C-1.15246512 1.23099846 -1.15246512 1.23099846 0 0 Z " fill="#C43237" transform="translate(154,128)"/>
<path d="M0 0 C0 3 0 3 -1 5 C-0.34 5.33 0.32 5.66 1 6 C0.01 7.485 0.01 7.485 -1 9 C-1.99 7.68 -2.98 6.36 -4 5 C-3.34 5 -2.68 5 -2 5 C-1.7834375 4.0409375 -1.7834375 4.0409375 -1.5625 3.0625 C-1 1 -1 1 0 0 Z " fill="#D63438" transform="translate(62,121)"/>
<path d="M0 0 C1.65 1.65 3.3 3.3 5 5 C3.02 5 1.04 5 -1 5 C-0.67 3.35 -0.34 1.7 0 0 Z " fill="#CB3034" transform="translate(92,96)"/>
<path d="M0 0 C0.33 2.31 0.66 4.62 1 7 C-0.7074998 5.71937515 -2.37373596 4.38232443 -4 3 C-4 2.34 -4 1.68 -4 1 C-2 0 -2 0 0 0 Z " fill="#CC393C" transform="translate(36,98)"/>
<path d="M0 0 C1.65 0 3.3 0 5 0 C5.33 1.98 5.66 3.96 6 6 C3.97945196 4.35830472 1.97956942 2.69088222 0 1 C0 0.67 0 0.34 0 0 Z " fill="#C9373A" transform="translate(68,92)"/>
<path d="M0 0 C2.38564077 0.57584432 4.66682784 1.22227595 7 2 C6.34 3.32 5.68 4.64 5 6 C3.35 4.02 1.7 2.04 0 0 Z " fill="#C9383C" transform="translate(54,78)"/>
<path d="M0 0 C1.65 0 3.3 0 5 0 C6 3 6 3 5 6 C3.35 4.02 1.7 2.04 0 0 Z " fill="#C8393C" transform="translate(62,130)"/>
<path d="M0 0 C2 1.3125 2 1.3125 4 3 C4 3.99 4 4.98 4 6 C2.68 5.34 1.36 4.68 0 4 C0 2.68 0 1.36 0 0 Z " fill="#FADDDB" transform="translate(48,92)"/>
<path d="M0 0 C0.66 0.66 1.32 1.32 2 2 C1.34 3.32 0.68 4.64 0 6 C-1.65 4.35 -3.3 2.7 -5 1 C-2.625 0.375 -2.625 0.375 0 0 Z " fill="#CF3A3D" transform="translate(83,58)"/>
<path d="M0 0 C2.125 0.9375 2.125 0.9375 4 2 C2.35 3.32 0.7 4.64 -1 6 C-1.33 4.35 -1.66 2.7 -2 1 C-1.34 0.67 -0.68 0.34 0 0 Z " fill="#CD2F32" transform="translate(141,50)"/>
</svg>
