<?xml version="1.0" encoding="UTF-8" standalone="no"?>
<svg xmlns:rdf="http://www.w3.org/1999/02/22-rdf-syntax-ns#" xmlns="http://www.w3.org/2000/svg" height="162pt" width="162pt" version="1.1" xmlns:cc="http://creativecommons.org/ns#" xmlns:dc="http://purl.org/dc/elements/1.1/" viewBox="0 0 162 162.00015">
 <defs></defs>
 <g style="">
  <ellipse rx="80.151" ry="80.593" cy="81.295" cx="81.147" fill="#fff"/>
  <path d="m77.523 88.219l0.08589-0.06433c-0.06396-0.15698-0.15716-0.37119 0.07127-0.54966 0.07127-0.05702 0.16447-0.10709 0.44973-0.19274 0.60689-0.17836 0.66391-0.19274 0.79237-0.29981 0.21418-0.17123 0.2785-0.49255 0.03655-0.82092l-0.08589 0.06433c0.17178 0.27124 0.07858 0.44971-0.05665 0.56393-0.10051 0.07145-0.14985 0.09283-0.60671 0.22843-0.44973 0.12847-0.55682 0.17854-0.65678 0.26412-0.02924 0.02138-0.3854 0.29981-0.02924 0.80665zm16.311 1.2064c0.67103 0 1.292-0.31408 1.292-0.97795s-0.56395-0.95655-0.83514-1.0922c-0.42835-0.22128-0.7995-0.40688-0.7995-0.82092 0-0.27839 0.19279-0.52824 0.63522-0.52824 0.58551 0 0.75674 0.47828 0.81394 0.59964h0.12792c-0.07127-0.24272-0.12061-0.60678-0.13523-0.82806h-0.12061l-0.12061 0.09283c-0.20687-0.04989-0.38541-0.09283-0.62096-0.09283-0.61383 0-1.0137 0.39975-1.0137 0.88517 0 0.62104 0.56394 0.92084 1.0778 1.1921 0.29276 0.15698 0.4998 0.29981 0.4998 0.6496 0 0.41402-0.31414 0.68529-0.72092 0.68529-0.1133 0-0.6639-0.02138-0.89946-0.69243h-0.14985c0.12061 0.5568 0.12792 0.57822 0.14985 0.79238 0.24981 0.09996 0.55682 0.1356 0.82088 0.1356zm-2.3272-0.3355c-0.69954 0-0.6566-0.12847-0.6566-0.83519v-0.68529h0.54969c0.52813 0 0.68529 0 0.79219 0.19987h0.14254c-0.02924-0.17123-0.07127-0.30694 0-0.64245h-0.14254c-0.13523 0.18559-0.27832 0.20701-0.77081 0.20701h-0.57107c0-0.28554 0-0.77808 0.04203-1.185 0.14254-0.01462 0.39272-0.04276 0.69954-0.04276 0.5782 0 0.69241 0.14985 0.7995 0.29981h0.12792c-0.05665-0.21416-0.07858-0.34264-0.0932-0.57107-0.28563 0.02138-0.67816 0.03563-0.96379 0.03563 0 0-0.7423 0-0.9923-0.01462-0.15716 0-0.32821-0.01462-0.44242-0.02138v0.1356c0.14985 0.02138 0.19261 0.03563 0.2997 0.08571 0.04934 0.34264 0.07127 0.69243 0.07127 1.0422v0.91372s0 0.62818-0.08589 1.1279c-0.1133 0.05007-0.14985 0.05007-0.28544 0.08571v0.1356c0.22843-0.01462 0.58533-0.03563 0.82088-0.03563 0 0 1.1208 0 1.3276 0.0073 0.10051 0.0073 0.18567 0.01462 0.32126 0.02851 0.06396-0.28554 0.1133-0.43544 0.23556-0.7067h-0.13523c-0.29988 0.29981-0.45686 0.43544-1.0923 0.43544zm-2.883-1.321c-0.0932 0-0.27119-0.0073-0.40679-0.02138v-0.56394c0-0.34977 0.02193-0.69956 0.04934-1.0565 0.0932-0.02138 0.23556-0.05007 0.44973-0.05007 0.44973 0 0.83514 0.27841 0.83514 0.86375 0 0.71383-0.59245 0.82805-0.92797 0.82805zm0.2785-1.9488c-0.29276 0.0073-0.60689 0.03563-0.94241 0.04989-0.03655 0-0.42817-0.02851-0.55664-0.03563v0.1356c0.12792 0.02138 0.27119 0.07145 0.30683 0.08571 0.04386 0.54253 0.05665 1.185 0.05665 1.2706v0.77094c0 0.14272-0.01827 0.61391-0.07858 1.0351-0.1133 0.03563-0.24268 0.07858-0.28544 0.09283v0.1356c0.18548-0.01462 0.42104-0.03563 0.64234-0.03563 0.42835 0 0.52118 0.02138 0.74961 0.03563v-0.1356c-0.05665-0.0073-0.34977-0.04989-0.4998-0.09283-0.06396-0.26412-0.07858-0.72812-0.07858-1.0065v-0.15698c0.1133 0.01462 0.26406 0.03563 0.4426 0.03563 0.72805 0 1.4276-0.35692 1.4276-1.1279 0-0.69956-0.59958-1.0565-1.1849-1.0565zm-2.5628 1.5348c-0.43548-0.22128-0.7995-0.40688-0.7995-0.82092 0-0.27839 0.18567-0.52824 0.62827-0.52824 0.58533 0 0.74943 0.47828 0.81376 0.59964h0.12061c-0.06396-0.24272-0.1133-0.60678-0.12792-0.82806h-0.12061l-0.12061 0.09283c-0.20705-0.04989-0.38559-0.09283-0.62114-0.09283-0.61383 0-1.0137 0.39975-1.0137 0.88517 0 0.62104 0.56394 0.92084 1.078 1.1921 0.29257 0.15698 0.49962 0.29981 0.49962 0.6496 0 0.41402-0.31414 0.68529-0.72092 0.68529-0.1133 0-0.6639-0.02138-0.89946-0.69243h-0.14254c0.1133 0.5568 0.12061 0.57822 0.14254 0.79238 0.24981 0.09996 0.55682 0.1356 0.82088 0.1356 0.67103 0 1.2849-0.31408 1.2849-0.97795s-0.55664-0.95655-0.82088-1.0922zm-10.429 1.7346c-0.39984 0-0.54256-0.09283-0.5782-0.44258-0.02924-0.8923-0.02924-1.599-0.02924-1.599 0-0.32122 0.01827-0.64245 0.08589-0.95653 0.29276-0.11421 0.4141-0.11421 0.58533-0.12134v-0.1356c-0.18548 0.01462-0.43529 0.03563-0.87077 0.03563-0.29988 0-0.47111-0.01462-0.60671-0.03563v0.1356c0.17178 0.04276 0.22843 0.07145 0.28544 0.09283 0.07127 0.38548 0.07858 0.77808 0.07858 1.1707v0.66387c0 0.49967-0.02193 0.90657-0.07858 1.2349-0.07858 0.03564-0.10051 0.04989-0.28544 0.09283v0.1356c0.21399-0.0073 0.59245-0.03563 0.80663-0.03563h0.85652c0.14985 0.0073 0.37115 0.02138 0.61384 0.03563 0.08589-0.28554 0.13523-0.37833 0.37133-0.75667h-0.15716c-0.33552 0.41402-0.6566 0.4854-1.0778 0.4854zm-1.9274-1.1636v-0.99224c0-0.32123 0.02193-0.60676 0.04203-0.87088 0.07127-0.03563 0.12061-0.05702 0.29276-0.09283v-0.1356c-0.12792 0.01462-0.32126 0.03563-0.52831 0.03563-0.2213 0-0.39253-0.02138-0.49249-0.03563v0.1356c0.17909 0.02851 0.24981 0.06433 0.32126 0.09283 0.02193 0.22128 0.06396 0.62818 0.06396 1.8132 0 0.45686-0.03655 0.69956-0.19261 0.89944-0.16447 0.21414-0.47824 0.29981-0.75674 0.29981-0.7995 0-0.97786-0.57822-0.97786-1.549 0-0.37119 0.02193-1.1065 0.07858-1.4348 0.10782-0.04276 0.24981-0.09996 0.36402-0.12134v-0.1356c-0.13523 0.01462-0.32821 0.03563-0.69241 0.03563-0.30683 0-0.4426-0.02138-0.54951-0.03563v0.1356c0.13523 0.02138 0.17909 0.03563 0.29257 0.09283 0.04934 0.30695 0.06396 0.93513 0.06396 1.2564v0.60676c0 0.54253 0 1.4991 1.3419 1.4991 1.3563 0 1.3278-1.0208 1.3278-1.4991zm-4.9682 1.1778c-0.37846 0-0.54969-0.07145-0.60689-0.32835-0.04203-0.2213-0.04934-0.7995-0.04934-1.0422v-0.58534c0-0.32123 0-0.62818 0.02924-0.99937 0.12792-0.02138 0.36402-0.05701 0.62096-0.05701 1.3064 0 1.4705 1.1136 1.4705 1.5419 0 0.95653-0.51387 1.4705-1.4632 1.4705zm0.32108-3.2837c-0.42817 0.0073-0.7423 0.02851-1.1635 0.04989-0.0932 0-0.39253-0.01462-0.62809-0.03563v0.1356c0.14254 0.02851 0.17909 0.03563 0.30682 0.09283 0.04934 0.34264 0.05665 0.68529 0.05665 1.0279v1.0208c0 0.30695-0.02193 0.721-0.05665 1.0208-0.08589 0.03563-0.14985 0.06414-0.30682 0.09283v0.1356c0.16447-0.0073 0.46398-0.03563 0.70667-0.03563 0.23556 0.0073 0.61384 0.03563 1.0137 0.04989 1.1279 0 1.7631-0.82805 1.7631-1.7846 0-1.2278-0.9636-1.7703-1.6918-1.7703zm25.334-5.3467c0.95666 0 1.4278 0.95653 1.4278 1.6775 0 0.69956-0.4141 1.4562-1.2706 1.4562-0.87808 0-1.4064-0.85661-1.4064-1.6918 0-0.89944 0.57107-1.442 1.2492-1.442zm0.0932 3.3907c1.3062 0 1.8702-1.0708 1.8702-1.8346 0-0.99938-0.82088-1.8132-1.9201-1.8132-0.97091 0-1.8347 0.69956-1.8347 1.8203 0 0.96368 0.73536 1.8274 1.8846 1.8274zm-2.5988-1.7846c0 0.94228-0.51387 1.4634-1.4563 1.4634-0.3854 0-0.55664-0.07145-0.60671-0.32835-0.04934-0.21416-0.05665-0.7995-0.05665-1.0422v-0.58534c0-0.32123 0-0.62818 0.02924-0.99937 0.12792-0.02138 0.3569-0.05701 0.62096-0.05701 1.3064 0 1.4705 1.1136 1.4705 1.549zm-1.7203-1.806c-0.16447 0.01462-0.42835 0.03563-0.58533 0.03563-0.08589 0-0.39253-0.01462-0.62809-0.03563v0.1356c0.14254 0.02851 0.17909 0.03563 0.30683 0.09283 0.04934 0.34264 0.05665 0.69243 0.05665 1.0279v1.0208c0 0.30694-0.02193 0.72098-0.05665 1.0208-0.08589 0.03563-0.14985 0.06433-0.30683 0.09283v0.1356c0.16447-0.0073 0.47111-0.03563 0.70667-0.03563 0.23556 0.01462 0.60671 0.03563 1.0137 0.04989 1.1277 0 1.7631-0.82805 1.7631-1.7846 0-1.2278-0.95648-1.7703-1.6918-1.7703-0.34977 0-0.42835 0.0073-0.5782 0.01462zm-1.5418 3.5264c0.06396-0.28554 0.12061-0.43544 0.23556-0.7067h-0.12792c-0.29988 0.30695-0.46398 0.43544-1.0923 0.43544-0.70667 0-0.66391-0.12847-0.66391-0.83519v-0.68529h0.54969c0.53544 0 0.68529 0 0.7995 0.19988h0.13523c-0.02193-0.17123-0.07127-0.29983 0-0.64247h-0.13523c-0.13523 0.18561-0.28544 0.20701-0.77099 0.20701h-0.5782c0-0.28554 0-0.77808 0.04386-1.185 0.14985-0.01462 0.39253-0.04276 0.70667-0.04276 0.5782 0 0.69241 0.14985 0.79237 0.29981h0.13523c-0.06396-0.21416-0.08589-0.34264-0.10051-0.57107-0.28544 0.02138-0.67816 0.03563-0.95648 0.03563 0 0-0.74248 0-0.99942-0.01462-0.14985 0-0.32126-0.01462-0.4426-0.02138v0.1356c0.14985 0.02138 0.19279 0.03563 0.30701 0.08571 0.04934 0.34264 0.06396 0.69956 0.06396 1.0422v0.91372s0 0.62818-0.08589 1.1279c-0.10782 0.04989-0.14985 0.04989-0.28563 0.08571v0.1356c0.22843-0.01462 0.58533-0.03563 0.82088-0.03563h0.94222c0.29276 0.0073 0.49268 0.01462 0.70685 0.03563zm-2.9268-0.07852c0.06396-0.18559 0.24981-0.62818 0.34264-0.80665h-0.15716c-0.18567 0.25699-0.51406 0.68529-1.1922 0.68529-0.94935 0-1.3706-0.94226-1.3706-1.756 0-1.185 0.9351-1.3706 1.3136-1.3706 0.54969 0 0.91372 0.27125 1.1135 0.69956h0.13523c-0.06396-0.24985-0.12061-0.52824-0.13523-0.95655h-0.12792l-0.12792 0.09283c-0.15716-0.03564-0.40679-0.09283-0.78525-0.09283-1.3348 0-1.9345 0.88517-1.9345 1.7989 0 0.58534 0.29988 1.8488 1.9632 1.8488 0.38541 0 0.66372-0.06433 0.9636-0.14272zm-9.58-2.875c0.32839 1.0279 0.42122 1.3277 0.47111 1.5062h-1.0351l0.56394-1.5062zm-1.5776 2.9553c0.1133-0.0073 0.30701-0.03563 0.52118-0.03563 0.21418 0 0.39253 0.02851 0.49249 0.03563v-0.1356c-0.14254-0.02851-0.20705-0.05702-0.29257-0.09283 0.03655-0.32123 0.14254-0.71385 0.22843-0.97082h1.1707c0.12061 0.37119 0.16447 0.61391 0.24268 0.97082-0.19992 0.06433-0.28544 0.09283-0.34264 0.09283v0.1356c0.12792-0.01462 0.29988-0.03563 0.56394-0.03563 0.31414 0 0.4426 0.02138 0.59245 0.03563v-0.1356c-0.10051-0.02851-0.12792-0.04276-0.2213-0.09283-0.13523-0.25699-0.26406-0.54253-0.59958-1.649-0.27119-0.89944-0.33552-1.2564-0.39253-1.649h-0.19279c-0.17178 0-0.29988-0.01462-0.42122-0.03563l0.07858 0.2427-0.6354 1.7489c-0.1133 0.32124-0.40679 1.0922-0.54238 1.342-0.07127 0.03563-0.18567 0.08571-0.24999 0.09283v0.1356zm-2.6982-2.6983c0.10782-0.53538 0.39253-0.57822 1.1421-0.56394 0.03655 0.36406 0.04203 0.74954 0.04203 1.0279v0.72812c0 0.42117-0.02193 0.84234-0.06396 1.2635l-0.01828 0.01462c-0.10782 0.03563-0.22843 0.06433-0.34977 0.09283v0.1356c0.1133-0.0073 0.47842-0.03563 0.59976-0.03563 0.19261 0 0.56394 0.02851 0.72805 0.03563v-0.1356c-0.12792-0.02851-0.25694-0.06433-0.37828-0.10709-0.04934-0.36406-0.07127-0.88517-0.07127-1.2635v-0.72812c0-0.3355 0-0.68529 0.03655-1.0208 0.0932-0.01462 0.20705-0.01462 0.39272-0.01462 0.32126 0 0.67816 0.04989 0.7138 0.57107h0.13523c-0.01828-0.09996-0.04934-0.27126-0.04934-0.62105 0-0.14985 0-0.20701 0.01827-0.26412h-0.14254s-0.04934 0.05701-0.04934 0.05701c-0.37115 0.02851-0.82088 0.03563-1.2205 0.03563-0.91372 0-1.0065-0.0073-1.3921-0.03563 0 0-0.04934-0.05701-0.04934-0.05701h-0.14254c0 0.07145 0.02924 0.17854 0.02924 0.3141 0 0.22128-0.02193 0.42117-0.02924 0.57107h0.12061zm-0.32839 2.6983v-0.1356c-0.08589-0.0073-0.28563-0.04989-0.4141-0.09283-0.03655-0.28554-0.04203-0.57107-0.04203-0.86375v-0.99937c0-0.66387 0.04934-1.0208 0.06396-1.1921 0.04934-0.01462 0.2213-0.08571 0.39272-0.10709v-0.1356c-0.24268 0.02851-0.39984 0.03564-0.69954 0.03564-0.29276 0-0.51406-0.02138-0.65678-0.03564v0.1356c0.17178 0.01462 0.30701 0.07145 0.39966 0.10709 0.04934 0.59249 0.04934 0.82806 0.04934 0.97797v0.90657c0 0.62105-0.04203 0.9637-0.06396 1.1707-0.05665 0.02851-0.1133 0.05702-0.3854 0.09283v0.1356c0.21417-0.02138 0.3854-0.03563 0.64965-0.03563 0.24268 0 0.47824 0.01462 0.70667 0.03563zm-3.5193 0.06425h0.17909c0.10782-0.39975 0.44242-1.3563 0.49962-1.5062 0 0 0.25694-0.67816 0.25694-0.67816 0.14985-0.39261 0.30701-0.7995 0.4998-1.1778 0.12061-0.04989 0.13523-0.05702 0.26406-0.09283v-0.1356c-0.12061 0.01462-0.23556 0.03563-0.52118 0.03563-0.2997 0-0.42817-0.02138-0.54238-0.03563v0.1356c0.19974 0.04989 0.2213 0.06432 0.32108 0.09283-0.03655 0.17123-0.07858 0.39262-0.34264 1.1778 0 0-0.27119 0.7995-0.42104 1.185-0.10051-0.19274-0.19279-0.4283-0.29988-0.68529l-0.24268-0.62818c-0.17909-0.44971-0.27832-0.81377-0.34977-1.0565 0.19992-0.07858 0.25694-0.07858 0.32839-0.08571v-0.1356c-0.13523 0.01462-0.33552 0.03563-0.62827 0.03563-0.27119 0-0.38541-0.01462-0.521-0.03563v0.1356c0.07858 0.03563 0.1133 0.04989 0.19974 0.09283 0.26425 0.54253 0.47842 1.0636 0.53544 1.2064 0 0 0.25694 0.66387 0.25694 0.66387 0.16447 0.4069 0.4426 1.2207 0.52831 1.4919zm34.707 67.701c-0.38541-0.96368-0.9351-2.9838-1.1994-4.0332l-0.47823-1.9345c-0.44261-1.7561-1.2134-4.8541-5.1468-3.869-3.969 0.98509-3.0624 4.2688-2.6768 5.8178l0.7995 3.1909c0.25694 1.0279 0.42104 1.9702 0.57107 2.8482-0.19279 0.17123-0.30701 0.27127-0.77812 0.51397 0 0 0.1133 0.43544 0.1133 0.43544 0.34977-0.14272 0.91372-0.35692 1.5133-0.51397 0.64252-0.15697 1.1635-0.20701 1.4705-0.22843l-0.10782-0.44258c-0.55682 0.0428-0.78525-0.0214-1.0208-0.057-0.24268-0.7067-0.70667-1.9988-1.656-5.8178-0.37133-1.4705-0.44973-2.2771-0.14254-3.041 0.31414-0.79951 1.1493-1.3206 1.9632-1.5276 2.3342-0.57821 3.3193 1.1564 4.1046 4.3045 0.29258 1.185 0.83514 3.5763 0.92085 4.6899-0.27138 0.19989-0.65678 0.49257-0.94954 0.6496l0.10782 0.44258c0.39272-0.15697 0.91372-0.36406 1.9775-0.62818 0.91372-0.22842 1.3348-0.25697 1.656-0.27839l-0.10782-0.44258c-0.41409 0.0214-0.56394 0-0.93509-0.0786zm1.8702-12.685c-1.0707 0.46401-1.7417 1.0065-2.4985 1.599 0.0786 0.64959 0.15716 2.2129 0.14254 2.8625l0.42104-0.18559c0.17177-0.9851 0.53543-2.6912 2.4201-3.505 2.6125-1.135 5.0254 1.2349 6.0961 3.712 1.5634 3.612-0.77812 5.311-1.8346 5.7678-1.499 0.6496-2.8696 0.2427-3.9975-0.81377l-0.37828 0.1641c0.50675 0.68529 1.0279 1.4562 1.6418 2.7626l0.36403-0.15697s0.2213-0.44259 0.2213-0.44259c0.48536-0.0714 1.2564-0.19272 2.3057-0.64958 3.7049-1.6062 4.1689-5.0397 2.9696-7.8094-0.76368-1.7775-3.2764-5.2896-7.8737-3.3051zm11.7 0.86376c-0.32839-0.30696-0.57108-0.51397-0.77813-0.72098l2.6341-1.6561 1.2421 5.1182c-0.49249-0.42829-2.6626-2.3414-3.098-2.7411zm2.6483-2.4056c-0.27119-1.085-0.87808-3.712-0.9923-4.6328 0.12061-0.22843 0.32839-0.54253 0.47824-0.67816l-0.23555-0.39261c-0.28545 0.22843-0.7138 0.60676-1.2635 0.95655-0.54969 0.34265-1.0636 0.5568-1.3419 0.68529 0 0 0.24268 0.38548 0.24268 0.38548 0.42104-0.15698 0.63522-0.17123 0.9351-0.20703 0.46398 0.96369 0.87808 2.2343 1.1421 3.0981l-3.0125 1.8917c-0.97073-0.87088-1.5133-1.4705-2.327-2.3485 0.38541-0.51396 0.56395-0.71385 0.71379-0.82806l-0.24268-0.39261c-0.30682 0.26412-0.69954 0.59962-1.3777 1.0279-0.7995 0.49969-1.1849 0.65672-1.5776 0.83519 0 0 0.23556 0.38548 0.23556 0.38548 0.29988-0.0786 0.39984-0.0714 0.72823-0.0714 0.81375 0.49256 1.6275 1.085 4.4472 3.6692 2.2914 2.1058 3.0909 2.991 3.9118 4.0046l0.50675-0.32122c0.4141-0.26412 0.79237-0.43544 1.1421-0.5568l-0.62808-0.54966-1.4848-5.9606zm11.643-1.8917c-0.97804-0.84233-1.8417-1.8274-2.677-2.8125l-1.4347-1.699c-1.078-1.2564-1.906-2.32-2.4913-3.2694 0.10782-0.24272 0.13523-0.3141 0.47111-0.79238 0 0-0.2997-0.34977-0.2997-0.34977-0.48555 0.46399-1.285 1.2635-1.7775 1.6847l-1.9702 1.6704c-0.37847 0.27126-0.89947 0.66387-1.4919 1.0922 0.42817 0.90657 0.51387 1.2421 0.78525 2.6484l0.35689-0.29981c-0.12792-1.7061 0.46399-2.5127 1.4276-3.3336 0.91372-0.77809 1.4492-0.83519 2.2843-0.0146 0.58533 0.59249 1.9773 2.2058 2.1131 2.3628 0 0 1.392 1.6347 1.392 1.6347 0.69954 0.82807 1.3563 1.6704 1.8702 2.5984-0.44261 0.85661-0.7138 1.085-1.085 1.4491 0 0 0.2997 0.34264 0.2997 0.34264 0.39272-0.39975 0.91372-0.9494 1.906-1.7917 0.69242-0.58534 1.1208-0.87802 1.499-1.0922l-0.29969-0.34977c-0.49981 0.22843-0.68529 0.25697-0.87809 0.32122zm3.3407-11.007c-0.42122-0.17854-0.71379-0.29981-0.97786-0.42117l1.9343-2.4413s2.8769 4.4187 2.8769 4.4187c-0.60689-0.2427-3.2908-1.3206-3.8334-1.5562zm1.6918-3.148c-0.62115-0.92799-2.063-3.2051-2.4771-4.0332 0.0366-0.25697 0.12792-0.62103 0.22843-0.80662l-0.36402-0.28554c-0.1928 0.30695-0.47111 0.80663-0.87095 1.3206-0.40679 0.50684-0.82089 0.87803-1.0351 1.0993l0.3569 0.27839c0.34995-0.28553 0.54256-0.37833 0.81393-0.50682 0.75656 0.75667 1.5703 1.806 2.1058 2.5413l-2.2057 2.784c-1.2065-0.49255-1.9131-0.87803-2.9767-1.4348 0.19261-0.61391 0.29257-0.86374 0.39253-1.0208l-0.35689-0.28553c-0.19993 0.34264-0.46399 0.79235-0.95648 1.4277-0.58551 0.73525-0.89946 1.0065-1.2065 1.3063l0.3569 0.28554c0.2498-0.17123 0.34977-0.19987 0.64965-0.30696 0.94222 0.19274 1.906 0.47828 5.4251 1.9702 2.8554 1.2207 3.912 1.7917 5.0254 2.477 0 0 0.3642-0.47115 0.3642-0.47115 0.30683-0.38546 0.60671-0.67814 0.89216-0.91371l-0.77794-0.30694-3.3837-5.1182zm12.421-9.7653c-1.0851-0.37833-2.1629-0.86373-3.198-1.3848l-2.6984-1.3634c-0.0219-0.007-1.8631-0.94228-3.2408-1.9274 0-0.35692 0.042-0.47113 0.12792-0.88516l-0.40697-0.20703c-0.25694 0.63533-0.67816 1.6276-0.99942 2.27l-1.2706 2.5199c-0.24981 0.49255-0.42104 0.78523-0.57107 1.0351-0.14985 0.27127-0.28544 0.49257-0.51387 0.81379 0.75656 0.61389 1.1421 0.9851 1.7774 1.7061l0.17909-0.34978c-0.48537-1.2635-0.65678-1.9059 0.19992-3.5978 0.95647-1.8988 1.2777-1.599 3.3835-0.54251l2.0345 1.0351-0.74942 1.4776c-0.72824 1.4348-0.93528 1.8488-1.6847 1.856 0 0-0.18567 0.36407-0.18567 0.36407 0.36402 0.12846 0.7211 0.22842 1.1421 0.44258 0.20705 0.1 0.47112 0.29268 0.76387 0.51397l0.18567-0.36406c-0.36421-0.64246-0.22843-1.0708 0.43529-2.3842l0.78525-1.5562c0.84957 0.42831 2.2985 1.1778 3.4478 1.8917-0.14254 0.42117-0.39253 1.1207-0.82088 1.9631-0.78525 1.5562-1.3777 1.6418-1.963 1.7061 0 0-0.17908 0.34979-0.17908 0.34979 0.71397 0.14985 1.1279 0.28554 1.8274 0.59962 0.30701-0.82092 0.80681-1.8917 1.1922-2.6555l0.91372-1.8132c0.0932-0.18559 0.24268-0.43544 0.47111-0.84233 0.2213-0.40688 0.48537-0.84234 0.68529-1.1493l-0.4141-0.20703c-0.26406 0.36406-0.37828 0.464-0.65659 0.68528zm5.5536-18.945c-0.29258 1.6847-1.8203 1.9488-2.9767 1.7489-1.7631-0.30695-2.3627-1.5205-1.8488-3.9618 0 0 1.442 0.24985 1.442 0.24985 1.0707 0.17836 2.3914 0.44258 3.4407 0.74239 0 0.31408 0.0347 0.68529-0.0567 1.2207zm-3.9832 11.593c-0.6566-0.0214-3.5478-0.12847-4.1331-0.16428-0.45685-0.0285-0.77099-0.0428-1.0636-0.0715l0.99942-2.9482 4.1972 3.1837zm4.4544-14.477c-1.1992-0.07145-2.6697-0.24985-3.8475-0.45686l-2.4985-0.42117c-1.2136-0.20701-2.427-0.44971-3.6121-0.82804 0-0.05702-0.14254-0.63532-0.18548-0.95655 0 0-0.44973-0.07145-0.44973-0.07145-0.0292 0.58534-0.0292 0.92799-0.20705 1.9916-0.1928 1.1493-0.29276 1.3563-0.44973 1.8488 0 0 0.44973 0.07858 0.44973 0.07858 0.28544-0.5568 0.3569-0.63532 0.64965-1.1207 1.0778 0.02851 2.2271 0.15698 3.2978 0.3355l0.88521 0.15698c-0.0786 0.20701-0.12792 0.37833-0.18548 0.71383-0.064 0.38548-0.10051 0.72812-0.11331 0.98511-0.9424 0.34264-1.8274 0.67814-2.9054 1.2207-1.7702 0.8923-2.3199 1.392-2.6341 1.6847l-0.1133 0.63532c-0.0786 0.43544-0.14985 0.76381-0.23555 1.0636l-0.0859-0.02851c-0.0786 0.34979-0.17178 0.92086-0.37828 1.5348-0.20705 0.61389-0.47824 1.1065-0.60671 1.3848l0.42817 0.14272c0.23555-0.39261 0.38559-0.53536 0.59263-0.75667 0.97786 0.45686 2.0915 1.1778 2.8481 1.6847l-1.1348 3.3693c-1.3064-0.0643-2.1059-0.18561-3.2908-0.34978-0.0292-0.64246-0.0219-0.91372 0.0219-1.0922l-0.42835-0.14985c-0.0713 0.39263-0.16447 0.90659-0.42122 1.6633-0.2997 0.8923-0.50675 1.2564-0.69241 1.649l0.42835 0.14272c0.18566-0.24984 0.26406-0.30695 0.51405-0.51396 0.94935-0.12847 1.9488-0.19274 5.7677 0.0356 3.1052 0.17854 4.2903 0.36407 5.5609 0.62818l0.1928-0.56392c0.15716-0.47115 0.34264-0.84234 0.52812-1.1636l-0.828-0.0214-4.9184-3.6834c-0.89946-0.66387-3.0268-2.32-3.6905-2.9624-0.0366-0.1356-0.0566-0.29981-0.0713-0.45686 0.54256-0.9851 1.699-1.7418 2.6412-2.2486 1.4278-0.77808 2.527-1.2492 3.0838-1.4848 0.49962 2.2914 2.4842 2.6341 2.6912 2.6698 1.5919 0.27126 3.3407-0.72812 3.6691-2.6341 0.042-0.25697 0.0566-0.3355 0.1133-1.2135 0.0183-0.34264 0.0786-0.92799 0.18549-1.5633 0.0786-0.42117 0.25712-1.1421 0.42122-1.6347 0 0-0.45686-0.07145-0.45686-0.07145-0.14254 0.29981-0.34264 0.56393-0.52831 0.82805zm1.2922-11.407l0.20705-0.14985s0.0183-0.44971 0.0183-0.44971c-0.25712 0.03563-0.59977 0.07858-1.0495 0.07145-0.7423-0.01462-1.4062-0.07858-1.9201-0.12134v0.37833c1.7987 0.35692 1.9201 1.2135 1.8203 3.4835-1.2136 0.07145-2.47 0.07858-3.4193 0.06414 0 0-2.4129-0.04276-2.4129-0.04276-1.4062-0.02138-2.8124-0.11422-4.1972-0.27126l-0.0365-0.03563c-0.12792-0.32837-0.214-0.69243-0.30683-1.0708 0 0-0.45686-0.0073-0.45686-0.0073 0.0366 0.36406 0.1133 1.442 0.10782 1.8132-0.0183 0.58534-0.12792 1.7132-0.17178 2.1915 0 0 0.45686 0.0073 0.45686 0.0073 0.10051-0.37121 0.21418-0.77096 0.37828-1.1421 1.2207-0.11421 2.9482-0.15698 4.1974-0.1356l2.4199 0.04276c1.1208 0.02138 2.2987 0.05702 3.3979 0.17854 0.0292 0.27839 0.0438 0.62103 0.0347 1.185-0.0183 0.95655-0.20687 2.0273-1.9559 2.0987v0.4283c0.34264-0.04276 0.91371-0.1356 2.0917-0.11421 0.4925 0.0073 0.66373 0.02851 0.87078 0.04989 0 0 0.0183-0.4283 0.0183-0.4283l-0.20687-0.15698c-0.0786-1.1136-0.0786-2.4627-0.0566-3.6834 0.0494-2.7697 0.0786-3.041 0.1928-4.1831zm-3.6192-8.509c-2.0416 0.23557-2.8482 2.0487-3.562 3.6906-0.40697 0.94226-0.80663 1.6133-1.9773 1.7418-1.3634 0.15698-2.3771-0.69243-2.5127-1.9131-0.0439-0.34264-0.14985-1.9988 1.9987-2.9482l-0.0566-0.44257c-1.806 0.56393-1.8846 0.59249-2.5699 0.74239-0.23556 0.77808-0.26407 1.7132-0.17178 2.5127 0.22843 2.0059 1.4704 3.7405 3.6691 3.4907 2.1915-0.24985 2.9553-2.0416 3.3194-2.8911 0.59245-1.3777 1.0849-2.5484 2.4484-2.7055 0.92797-0.10709 1.7989 0.36406 1.9559 1.7061 0.19279 1.7275-1.3348 2.427-1.6845 2.6555 0 0 0.0347 0.37121 0.0347 0.37121 0.77099-0.29268 1.963-0.58536 2.6911-0.7067l-0.0366-0.34979-0.36402-0.34264c0.10051-0.62818 0.18566-1.1921 0.10782-1.8845-0.20705-1.856-1.6705-2.9125-3.2908-2.7269zm0.27119-8.4447c0.75674 2.7911-1.9559 4.9826-4.2687 5.6037-2.2344 0.60676-4.9969 0.08571-5.6751-2.4271-0.69241-2.5413 1.642-4.8398 4.3402-5.5679 2.8769-0.78523 5.0684 0.41402 5.6036 2.3914zm-6.4388-3.8547c-3.098 0.84232-5.2895 3.7405-4.3829 7.0742 1.035 3.7976 4.9255 4.5115 7.3667 3.8476 3.2051-0.86375 5.1826-3.969 4.3116-7.1741-0.76387-2.8197-3.6976-4.7185-7.2955-3.7477zm-9.387-8.0807c-0.29275-0.26412-0.31413-0.26412-0.71379-0.69956l-0.40697 0.19274c0.22843 0.34264 0.49962 0.74239 0.78525 1.3492 0.29257 0.59962 0.47111 1.1564 0.6067 1.5633l0.4141-0.19274c-0.19992-0.62818-0.18567-0.86375-0.18567-1.0493 0.28563-0.19274 0.59246-0.37833 0.89234-0.54253 1.2777-0.7281 3.8975-2.0344 4.3973-2.2771 0.89928-0.43544 1.8631-0.83519 2.4555-1.0993 0 0-2.3128 4.7113-2.3128 4.7113-1.3991 3.0981-1.7204 3.3622-2.0416 3.969-0.12061 0.22843-0.88521 1.3206-1.0493 1.549 0.1133 0.23557 0.29257 0.79237 0.41391 1.1707 1.3706-1.0137 2.5485-1.5419 4.4187-2.3985l2.3842-1.085c0.0183-0.01462 1.9416-0.87802 3.1552-1.2849 0.24981 0.25699 0.39966 0.39262 0.62096 0.72099l0.4141-0.19274c-0.23556-0.34264-0.53544-0.80665-0.80663-1.3777-0.26424-0.54966-0.42835-1.0636-0.52831-1.3991l-0.40697 0.19987c0.064 0.22843 0.10782 0.39975 0.17178 0.93513-1.2492 0.77094-3.0052 1.6704-4.3473 2.3128-0.69955 0.33552-2.006 0.92086-2.7697 1.2635 0.45686-1.0708 1.0351-2.427 2.2698-4.9469 0.771-1.5633 1.6277-3.3408 2.6485-4.5543l-0.10051-0.19987c-0.19279-0.41404-0.32839-0.77096-0.44973-1.0708-0.12061-0.30695-0.2213-0.5568-0.30701-0.82092l-0.25694 0.12134c-0.13523 0.29266-0.39271 0.84946-0.45685 0.97795-1.235 0.6496-2.6554 1.3634-3.4765 1.7632-0.97786 0.46398-4.547 2.0844-5.4322 2.3914zm-7.1456-9.8724c-0.32126-0.16429-0.40678-0.24985-0.74943-0.49969l-0.36402 0.27839c0.47111 0.50684 1.1849 1.3063 1.6346 1.8703l1.7346 2.2272c0.33552 0.43544 0.53544 0.71385 0.69242 0.95655 0.17908 0.25697 0.32126 0.47113 0.51405 0.81377 0.8779-0.42117 1.3777-0.61391 2.2986-0.87803 0 0-0.23556-0.31408-0.23556-0.31408-1.3563-0.09996-2.006-0.21416-3.1766-1.7132-1.2993-1.6775-0.89234-1.8346 0.9636-3.2837l1.7989-1.4063 1.0137 1.3063c0.99229 1.2706 1.2777 1.6347 0.9636 2.3129l0.25 0.32122c0.27119-0.27126 0.51387-0.54251 0.89215-0.83519 0.17178-0.14272 0.46398-0.29981 0.78525-0.47113l-0.24981-0.32123c-0.72805 0.04989-1.0636-0.25699-1.9702-1.4134l-1.0709-1.3777c0.74961-0.58534 2.0487-1.5776 3.1909-2.3128 0.31414 0.31408 0.84245 0.83519 1.4206 1.5776 1.0707 1.3777 0.89233 1.9488 0.69954 2.5127 0 0 0.24268 0.30695 0.24268 0.30695 0.43548-0.57822 0.74249-0.89944 1.3207-1.392-0.61402-0.63532-1.3634-1.5419-1.8918-2.2129l-1.2492-1.6061c-0.12792-0.1641-0.29257-0.40688-0.55682-0.77808-0.27119-0.37833-0.55682-0.80663-0.74943-1.1136l-0.3569 0.27839c0.20687 0.39975 0.24981 0.54253 0.32821 0.8923-0.80663 0.82092-1.6988 1.5919-2.6125 2.3057l-2.3842 1.856c-0.0183 0.0073-1.6491 1.2849-3.1267 2.113zm2.163-10.829c-0.2997 0.58534-1.6418 3.148-1.9274 3.6691-0.21418 0.3926-0.36403 0.67101-0.51388 0.92799l-2.2415-2.1629 4.6828-2.4342zm-9.1514 3.7405c-0.25694-0.05702-0.60671-0.18559-0.78525-0.29981 0 0-0.30682 0.32123-0.30682 0.32123 0.27831 0.22843 0.74943 0.54965 1.2205 0.99937 0.46398 0.44973 0.79237 0.90659 0.98517 1.1421 0 0 0.32126-0.32835 0.32126-0.32835-0.25712-0.37833-0.32126-0.57822-0.42835-0.86375 0.82801-0.67814 1.9559-1.3848 2.734-1.8488l2.5626 2.477c-0.61383 1.1493-1.0707 1.8203-1.7275 2.8197-0.58532-0.24985-0.82801-0.37121-0.97785-0.49255l-0.31414 0.32837c0.32126 0.23556 0.7423 0.53536 1.3205 1.0993 0.67816 0.6496 0.92084 0.99224 1.1922 1.3277 0 0 0.31413-0.32837 0.31413-0.32837-0.14254-0.27125-0.16447-0.37119-0.24999-0.68529 0.29276-0.91372 0.67103-1.8417 2.5056-5.1968 1.4919-2.734 2.1701-3.7191 2.9553-4.7542l-0.43547-0.41402c-0.34977-0.34979-0.61384-0.67816-0.81376-0.97797 0 0-0.3854 0.74239-0.3854 0.74239l-5.4324 2.8625c-0.98498 0.52824-3.3906 1.7418-4.2544 2.0701zm-5.3109-11.15c-0.61402 0.8923-2.9197 4.0617-3.5335 4.7613-0.37846-0.07858-0.40697-0.07145-0.96379-0.24985l-0.26406 0.37119c0.37115 0.19274 0.80663 0.39975 1.3563 0.77808 0.54256 0.38548 0.97785 0.7781 1.2991 1.0708 0 0 0.26406-0.37833 0.26406-0.37833-0.48536-0.44971-0.58533-0.65672-0.68529-0.82092 0.15716-0.30695 0.32839-0.62103 0.51406-0.91372 0.74961-1.2635 2.3771-3.6977 2.6913-4.1474 0.57107-0.82805 1.2134-1.6561 1.5917-2.1843 0 0 0.32126 5.2467 0.32126 5.2467 0.31414 3.3836 0.17178 3.7691 0.1928 4.4615 0 0.25697-0.12061 1.5776-0.14254 1.8631 0.20705 0.14272 0.64234 0.53538 0.93509 0.80665 0.68529-1.5562 1.4492-2.5984 2.6483-4.2688 0 0 1.5349-2.1201 1.5349-2.1201 0.0183-0.02138 1.2564-1.7275 2.1058-2.684 0.34977 0.09996 0.54256 0.14272 0.89946 0.32837 0 0 0.26406-0.37833 0.26406-0.37833-0.37115-0.18559-0.86364-0.44259-1.3848-0.7995-0.50674-0.34979-0.89946-0.71385-1.1421-0.95655 0 0-0.26406 0.37833-0.26406 0.37833 0.17177 0.16429 0.29257 0.29268 0.62096 0.72812-0.7138 1.292-1.7989 2.941-2.6412 4.1617-0.4426 0.63532-1.2849 1.7917-1.7702 2.4699-0.13523-1.1564-0.30701-2.6198-0.49268-5.4252-0.10051-1.7418-0.23555-3.7048 0.0567-5.261l-0.18566-0.12847c-0.37828-0.26412-0.67104-0.51396-0.92085-0.7067-0.26406-0.20701-0.47824-0.37833-0.67816-0.56394l-0.15716 0.23557c0.0219 0.32123 0.0786 0.93513 0.0786 1.0779-0.74943 1.1707-1.6275 2.4984-2.1485 3.248zm-8.559 2.6127l-0.20705 0.39975c0.60671 0.23556 1.0707 0.41402 1.7845 0.78521 0.65678 0.34264 1.2637 0.72812 1.8347 1.1065l0.21399-0.39975c-0.21399-0.14985-0.68528-0.54966-0.97073-0.84946 0.34977-0.8923 0.78525-1.7561 1.235-2.6127 0 0 1.5347-2.9553 1.5347-2.9553 1.0208-1.9488 1.6847-2.9339 1.9988-3.4193 0.15716 0.02138 0.72092 0.05702 1.2134 0.22843l0.20704-0.39975c-0.67816-0.24985-1.135-0.44971-1.9274-0.85661-0.78525-0.41402-1.3421-0.79236-1.699-1.0422 0 0-0.20687 0.40688-0.20687 0.40688 0.42817 0.29268 0.70667 0.6496 0.89216 0.87803-0.75656 1.8274-1.1206 2.5199-1.349 2.9553l-1.3993 2.684c-0.94935 1.8203-1.599 2.7626-1.9987 3.3479-0.18567-0.0073-0.38559-0.0073-1.1564-0.25697zm-12.455-4.762s-0.14985 0.42831-0.14985 0.42831c0.40697 0.08571 0.87095 0.1641 1.499 0.38548 0.60689 0.22128 1.0208 0.44971 1.3563 0.62103l0.14985-0.4283c-0.47111-0.30695-0.61383-0.47828-0.74943-0.60678 0.1133-0.52109 0.18548-0.8209 0.521-1.7703 0.49268-1.3991 0.80663-2.0701 1.0208-2.5627 0 0 1.6562-3.7477 1.6562-3.7477 0.0932 1.2207 0.15716 2.4556 0.18549 3.712l0.0567 2.8696c0.0219 1.1136-0.0493 2.4413-0.21418 3.5121l0.58533 0.20701c0.14985-0.22843 0.29988-0.49969 0.59245-0.87802 0.98517-1.2849 2.5913-2.991 3.9191-4.4401 0.29257-0.32122 1.756-1.7774 2.0772-2.1272-0.74961 3.0838-1.699 6.2318-2.4486 8.045-0.48537-0.02851-0.77081-0.02851-1.192-0.07858 0 0-0.14985 0.42831-0.14985 0.42831 0.62809 0.1641 1.2706 0.30695 1.8631 0.52111 0.59958 0.21414 1.1564 0.4854 1.6705 0.73525l0.14984-0.43544c-0.25693-0.14985-0.49961-0.37833-0.73517-0.59964 0.51387-2.2986 1.8059-7.2455 2.7839-9.8439 0.28544-0.14272 0.57107-0.23556 0.91371-0.22128l0.0859-0.22843c-0.54256-0.12847-1.0495-0.22843-1.6918-0.45686l-0.74249-0.26412s-0.14254 0.81377-0.14254 0.81377-5.8534 6.2318-5.8534 6.2318c-0.10782-1.392-0.13523-1.9202-0.16447-3.3836l-0.064-3.455c-0.0183-0.464-0.0219-1.4348 0.0493-2.3985 0 0-0.56395-0.19987-1.2205-0.44971-0.32839-0.1356-0.67816-0.28554-1.0066-0.47828l-0.0859 0.22843c0.32126 0.42117 0.42835 0.59962 0.56395 1.085l-1.9773 4.4044c-0.69954 1.549-1.4135 3.1124-2.2273 4.5971-0.26406 0.02138-0.39966 0.05702-0.88521 0.02851zm-8.9016-7.117c0.42835-2.9482 2.3985-4.4901 4.4259-4.1974 2.8625 0.41402 3.7905 3.7833 3.4478 6.1462-0.33552 2.2986-1.913 4.6257-4.49 4.2474-2.6056-0.37833-3.7905-3.4336-3.3837-6.1961zm3.0767 7.0171c3.8904 0.56393 6.0963-2.7269 6.4675-5.2253 0.47824-3.2908-1.5847-6.3389-4.8756-6.8172-2.891-0.42117-5.8034 1.5205-6.3388 5.2039-0.46398 3.1837 1.3276 6.3389 4.7469 6.8386zm-14.234-11.422c0.39253-0.085707 1.0921-0.24272 1.8773-0.27126 3.9334-0.12847 4.5472 3.5621 4.59 5.004 0.10782 3.1552-1.392 4.9326-4.2331 5.0254-1.1564 0.04276-1.6774-0.19274-1.8631-1.0422-0.15716-0.71385-0.25694-2.6555-0.28544-3.4479l-0.06396-1.9416c-0.02924-1.085-0.02924-2.1058-0.02193-3.3265zm-1.613-0.2499c0.19261 1.135 0.24268 2.2914 0.27832 3.4336l0.1133 3.3765c0.02924 1.0279 0 2.3985-0.06396 3.4122-0.24999 0.12134-0.43548 0.22128-0.91372 0.32837 0 0 0.02193 0.45686 0.02193 0.45686 0.49249-0.05007 1.392-0.17854 2.1129-0.19988 0.51406-0.01462 1.8989 0.10709 3.0624 0.07145 3.4051-0.11421 5.2325-2.9267 5.1254-6.1033-0.13523-4.0832-3.0838-5.7892-5.2824-5.7179-1.0637 0.028508-1.3064 0.057016-1.749 0.11421-0.49249 0.050072-1.292 0.15698-1.7702 0.17123-0.25694 0.00731-1.1778-0.021381-1.8846-0.071453l0.01827 0.45686c0.42835 0.07858 0.53544 0.11421 0.93528 0.27126zm-9.095 7.6457c0.98517 0.29268 1.6918 0.60676 1.9702 1.7489 0.32839 1.3278-0.39253 2.4413-1.5847 2.734-0.33552 0.07858-1.963 0.39975-3.1764-1.6133l-0.42835 0.10709c0.78525 1.7203 0.82088 1.7917 1.0493 2.4556 0.81376 0.1356 1.7417 0.04989 2.5198-0.14272 1.963-0.47113 3.5264-1.9274 3.0052-4.0689-0.521-2.1415-2.3985-2.684-3.2835-2.941-1.442-0.41404-2.6628-0.75668-2.9911-2.0844-0.22112-0.90657 0.13523-1.8346 1.4492-2.1558 1.699-0.41402 2.5699 1.0208 2.8411 1.342 0 0 0.36402-0.08571 0.36402-0.08571-0.3854-0.7281-0.82088-1.8774-1.0279-2.5841 0 0-0.34977 0.085707-0.34977 0.085707s-0.28544 0.39975-0.28544 0.39975c-0.64252-0.021381-1.2136-0.035635-1.8918 0.12847-1.8132 0.43544-2.6768 2.0202-2.2914 3.6049 0.48537 1.9916 2.3842 2.5698 4.1117 3.0695zm-9.23-3.405c0.81376 1.8132 1.0637 2.5484 1.2279 3.0124l0.99942 2.8554c0.67103 1.9416 0.91372 3.0624 1.0707 3.7548-0.14254 0.12847-0.27119 0.27125-0.98517 0.65672 0 0 0.14985 0.43544 0.14985 0.43544 0.58533-0.28554 1.0351-0.49969 1.7989-0.77094 0.69241-0.23557 1.392-0.42117 2.063-0.57107 0 0-0.14985-0.43544-0.14985-0.43544-0.25694 0.04989-0.86364 0.12134-1.2849 0.12847-0.39966-0.86375-0.7423-1.7775-1.0564-2.6912l-1.0923-3.1409c-0.72805-2.0844-0.98498-3.2408-1.1279-3.7976 0.12792-0.09996 0.53544-0.48542 0.99942-0.72812 0 0-0.14985-0.42831-0.14985-0.42831-0.64965 0.32124-1.1065 0.52111-1.9488 0.81379-0.83532 0.29266-1.4919 0.44257-1.9131 0.52824 0 0 0.14985 0.43544 0.14985 0.43544 0.50693-0.11421 0.95666-0.07145 1.2492-0.05702zm-10.015 6.5673l0.34264-0.1641c-0.49268-1.7703 0.22843-2.2557 2.3057-3.1909 0.59958 1.0636 1.1707 2.1772 1.5776 3.0338l1.0422 2.1772c0.60671 1.2706 1.1493 2.5698 1.6275 3.8761 0 0-0.01827 0.05702-0.01827 0.05702-0.23556 0.25697-0.52118 0.49255-0.81376 0.74239l0.19261 0.41402c0.30701-0.18559 1.2421-0.74239 1.5776-0.90657 0.52118-0.24985 1.5847-0.6496 2.0345-0.82092 0 0-0.19992-0.41402-0.19992-0.41402-0.37828 0.07858-0.78525 0.14985-1.1849 0.17123-0.64965-1.0351-1.4563-2.5698-1.9988-3.6977l-1.0422-2.1772c-0.47824-1.0136-0.97786-2.0844-1.3563-3.1195 0.22843-0.15698 0.52831-0.32123 1.0351-0.56393 0.86383-0.41402 1.9131-0.72812 2.7556 0.80663l0.3854-0.17836c-0.19279-0.29268-0.52831-0.76381-1.0351-1.8203-0.21417-0.44971-0.27137-0.61389-0.34977-0.80663l-0.38559 0.18559-0.04203 0.25699c-0.97073 0.56393-2.1772 1.1635-3.2766 1.6847-2.4912 1.1993-2.7483 1.2992-3.8261 1.7061l-0.22843-0.12134-0.39984 0.19274c0.13523 0.20701 0.32839 0.49255 0.52831 0.90657 0.31414 0.67102 0.55682 1.292 0.74961 1.7703zm-2.3842 5.2396c0.34264 0.29981 0.5782 0.49969 0.7995 0.69956l-2.5842 1.7418-1.4062-5.0754c0.50675 0.4069 2.7411 2.2486 3.1909 2.6341zm-2.5699 2.4913c0.30701 1.0779 0.99942 3.6834 1.1421 4.5971-0.10782 0.23557-0.30701 0.5568-0.45686 0.69958 0 0 0.25694 0.37833 0.25694 0.37833 0.2785-0.23558 0.68529-0.62818 1.2279-0.99224 0.53544-0.36406 1.0422-0.59249 1.3207-0.72812l-0.25712-0.37833c-0.42104 0.1641-0.62809 0.19274-0.92797 0.23557-0.49962-0.94941-0.94935-2.1986-1.2421-3.0624l2.9482-1.9916c0.99942 0.84234 1.5562 1.4277 2.4056 2.2772-0.37115 0.52824-0.54238 0.73525-0.68529 0.84946l0.24999 0.37833c0.2997-0.26412 0.67798-0.61391 1.349-1.0636 0.77812-0.52824 1.1637-0.69243 1.542-0.88517 0 0-0.24981-0.37833-0.24981-0.37833-0.29988 0.07858-0.39984 0.08571-0.7211 0.09283-0.83514-0.46398-1.6703-1.0279-4.5686-3.5192-2.3556-2.0273-3.1909-2.8911-4.0403-3.8761l-0.49249 0.3355c-0.4141 0.27841-0.78525 0.464-1.1279 0.59964l0.64234 0.52824 1.6847 5.9035zm-11.821 5.2182l0.27832-0.24985c-0.97786-1.549-0.4426-2.2272 1.2777-3.7191 0.88521 0.83519 1.7562 1.7418 2.3985 2.4413 0 0 1.6277 1.7775 1.6277 1.7775 0.94935 1.0422 1.8488 2.1201 2.6839 3.2408v0.05007c-0.15716 0.31408-0.34977 0.62818-0.56395 0.9494 0 0 0.30701 0.34264 0.30701 0.34264 0.23556-0.27126 0.97073-1.0708 1.2421-1.3277 0.43548-0.39262 1.3276-1.085 1.7132-1.3777l-0.31414-0.3355c-0.34264 0.18559-0.70667 0.36406-1.0923 0.50682-0.92084-0.80665-2.1343-2.0344-2.9838-2.9624 0 0-1.6275-1.7775-1.6275-1.7775-0.75674-0.82805-1.5418-1.7061-2.2057-2.5912 0.17178-0.21416 0.41391-0.45686 0.82801-0.83519 0.70667-0.6496 1.6204-1.2492 2.8767-0.02851l0.30701-0.29268c-0.26406-0.21416-0.72823-0.57107-1.5204-1.4348-0.33552-0.36406-0.43548-0.50682-0.56394-0.671l-0.31414 0.29266s0.02193 0.25699 0.02193 0.25699c-0.75674 0.82092-1.7346 1.7489-2.6341 2.5627-2.0416 1.8774-2.2558 2.0487-3.1695 2.7483 0 0-0.24981-0.05007-0.24981-0.05007l-0.32839 0.29983c0.19279 0.1641 0.46398 0.37833 0.76387 0.71383 0.50675 0.54965 0.91372 1.0708 1.235 1.4705zm-4.1974 1.9274c1.599 1.1707 2.1843 1.6847 2.5555 2.013l2.2772 1.9916c1.542 1.3492 2.3057 2.2058 2.7841 2.734-0.05665 0.17836-0.10051 0.37119-0.52831 1.0636l0.34264 0.29981c0.37115-0.53538 0.65678-0.9494 1.1849-1.5562 0.48555-0.54966 0.99942-1.0565 1.5064-1.5205l-0.34264-0.29983c-0.19279 0.16429-0.68529 0.53538-1.0495 0.73527-0.77794-0.54253-1.5204-1.1707-2.2485-1.8132l-2.5056-2.1915c-1.6562-1.4491-2.4557-2.3271-2.8482-2.7411 0.05665-0.15698 0.2213-0.69243 0.50675-1.1279l-0.34264-0.29981c-0.40679 0.59964-0.70667 0.99938-1.292 1.6704-0.58533 0.67101-1.078 1.1207-1.3991 1.4063l0.34264 0.29983c0.37828-0.34979 0.79237-0.53538 1.0564-0.66387zm-3.9975 8.459c1.6705 1.1993 3.4834 0.39975 5.1183-0.3355 0.9351-0.42831 1.6845-0.6496 2.6412 0.04276 1.1065 0.7995 1.292 2.1058 0.57107 3.1052-0.19992 0.27841-1.235 1.5847-3.4621 0.84234l-0.26425 0.35692c1.7275 0.7995 1.7989 0.82806 2.4128 1.185 0.69954-0.42117 1.3492-1.0922 1.8132-1.7489 1.1851-1.6347 1.4278-3.7619-0.36402-5.0469-1.7918-1.292-3.5692-0.4854-4.4116-0.09283-1.3561 0.62103-2.5198 1.1564-3.6262 0.34979-0.75674-0.54253-1.0851-1.4777-0.29988-2.5698 1.0208-1.4206 2.6127-0.89944 3.0339-0.82806 0 0 0.2213-0.30695 0.2213-0.30695-0.77099-0.29981-1.849-0.88515-2.47-1.292 0 0-0.20705 0.29268-0.20705 0.29268l0.04203 0.49255c-0.49962 0.39975-0.94222 0.75667-1.349 1.3206-1.0923 1.5133-0.7211 3.2765 0.59958 4.2331zm-5.6393 5.9249c0.7995-1.5134 2.3271-1.2849 3.3692-0.73525 1.5776 0.83519 1.7775 2.1772 0.52831 4.3401l-1.2922-0.68529c-0.9636-0.50684-2.1343-1.1636-3.0408-1.7775 0.0932-0.29981 0.17909-0.65674 0.43548-1.1421zm-1.3492 2.5912c1.1208 0.44259 2.4626 1.0708 3.5193 1.6275l2.2413 1.185c1.0923 0.57107 2.1629 1.185 3.1766 1.906 0 0.05702-0.06396 0.6496-0.12061 0.96368l0.40679 0.21416c0.19992-0.54965 0.31414-0.87803 0.81394-1.8346 0.54238-1.0279 0.69954-1.1993 1.0064-1.6133l-0.40679-0.21416c-0.44973 0.44258-0.53544 0.49257-0.97091 0.86375-1.0064-0.36406-2.0701-0.84234-3.0266-1.3492l-0.79237-0.42117c0.14254-0.17123 0.24268-0.32123 0.39966-0.62104 0.18567-0.34979 0.32126-0.65674 0.4141-0.89944 0.99942-0.03563 1.9488-0.07858 3.141-0.25699 1.963-0.29981 2.6341-0.59962 3.0266-0.78521l0.30701-0.57107c0.33552-0.62105 0.59245-0.99939 0.88502-1.392l-0.40679-0.20701c-0.7995 0.82805-2.2057 1.2135-3.298 1.4063-1.599 0.29981-2.791 0.40688-3.3979 0.44971 0.24268-2.3271-1.5418-3.2694-1.7203-3.3622-1.4347-0.75667-3.4122-0.34979-4.3116 1.3634-0.12061 0.2213-0.15716 0.29981-0.48537 1.1136-0.12061 0.32123-0.36402 0.84946-0.66391 1.4277-0.19974 0.37833-0.59245 0.99937-0.89928 1.4205l0.39966 0.21416c0.24268-0.2427 0.50675-0.42831 0.76387-0.62818zm-3.6121 9.2871c1.1279 0.22843 2.2558 0.57107 3.3479 0.95655 0 0 2.8482 0.99937 2.8482 0.99937 0.02193 0.0073 1.9775 0.69243 3.4694 1.4919 0.03655 0.35692 0.01827 0.47828-0.01827 0.90657l0.42817 0.14985c0.17178-0.66387 0.45686-1.7061 0.69954-2.3914l0.93528-2.6555c0.17909-0.52109 0.31395-0.83519 0.42817-1.0993 0.12061-0.28554 0.2213-0.52109 0.40697-0.87088-0.82801-0.51396-1.2635-0.82806-1.9844-1.4634l-0.13523 0.37119c0.65678 1.185 0.90659 1.7989 0.27137 3.5906-0.69954 1.9988-1.0564 1.7489-3.2837 0.97082 0 0-2.1487-0.75668-2.1487-0.75668l0.54969-1.5704c0.53544-1.5134 0.68529-1.9488 1.4278-2.0487 0 0 0.13523-0.38548 0.13523-0.38548-0.37846-0.07858-0.74249-0.1356-1.1851-0.29268-0.21418-0.07145-0.50675-0.22843-0.82088-0.41402 0 0-0.13523 0.38548-0.13523 0.38548 0.43548 0.58534 0.36402 1.0351-0.12792 2.4199l-0.5782 1.649c-0.89946-0.32123-2.427-0.87803-3.662-1.4348 0.0932-0.44257 0.24268-1.1636 0.55682-2.0487 0.5782-1.649 1.1564-1.806 1.7346-1.9488l0.12792-0.37119c-0.72805-0.05702-1.1635-0.1356-1.8918-0.35692-0.19261 0.85661-0.54951 1.9773-0.83514 2.784l-0.67816 1.9274c-0.06396 0.18559-0.17909 0.45686-0.34977 0.88517-0.17178 0.4283-0.37828 0.89942-0.53544 1.2278l0.42835 0.14985c0.2213-0.3926 0.32126-0.50682 0.57107-0.75667zm-2.5571 11.351c1.9416-0.42117 3.7477-0.72812 4.2473-0.7995l2.3342-0.34264c1.4206-0.21416 4.2331-0.52826 5.1755-0.59964l0.10051-0.52109c-1.235-0.57822-4.1547-2.1844-4.6258-2.4485l-2.0559-1.1921c-1.2136-0.7067-2.427-1.4348-3.562-2.2486-0.07858-0.38548-0.093199-0.43544-0.14985-0.83519 0 0-0.4426-0.08571-0.4426-0.08571-0.018274 0.36406 0 0.71385-0.17178 1.549-0.17909 0.8923-0.32839 1.2635-0.44973 1.5847 0 0 0.44973 0.09283 0.44973 0.09283 0.2785-0.5568 0.32839-0.61391 0.47824-0.88517 0.54256 0.21416 1.2421 0.47828 3.6406 1.7632 0 0 1.7346 0.93513 1.7346 0.93513 0.7211 0.38546 0.84957 0.44971 1.906 1.0779-0.69241 0.17123-1.5133 0.30695-2.4128 0.44259 0 0-2.1986 0.32123-2.1986 0.32123-1.5705 0.22843-2.8269 0.29981-3.6477 0.34264-0.12792-0.61391-0.12061-0.79237-0.093199-1.0137l-0.44973-0.08571c-0.021929 0.41402-0.05665 1.0136-0.23556 1.8845-0.14985 0.79236-0.27832 1.1136-0.42835 1.5205 0 0 0.4426 0.09283 0.4426 0.09283 0.16447-0.22843 0.23556-0.30695 0.4141-0.54965zm-0.36402 5.1111c1.9844-0.0073 2.7625 0.05702 3.255 0.09996l3.0123 0.2427c2.0487 0.16429 3.1695 0.39262 3.8619 0.53538 0.06396 0.17854 0.14254 0.35692 0.20705 1.1707l0.45686 0.03563c-0.02193-0.65674-0.03655-1.1564 0.02924-1.9559 0.05665-0.73525 0.17178-1.442 0.30701-2.1201l-0.45686-0.03563c-0.05665 0.24985-0.24268 0.83519-0.40697 1.2207-0.95648 0.02138-1.9201-0.03563-2.8839-0.12134l-3.3193-0.26412c-2.1984-0.179-3.3548-0.414-3.9258-0.507-0.0421-0.164-0.2285-0.693-0.2643-1.207l-0.44973-0.04276c0.036549 0.72812 0.029239 1.2207-0.034721 2.113-0.07127 0.88517-0.20705 1.5419-0.2997 1.9631l0.45686 0.03563c0.10051-0.50682 0.32108-0.8923 0.45686-1.1636zm4.2758 12.585c1.0778-0.04989 4.9969-0.12847 5.9249-0.06432 0.17178 0.34979 0.19279 0.37121 0.3854 0.92801l0.45686-0.02138c-0.07858-0.4069-0.17178-0.88517-0.19992-1.549-0.02924-0.66387 0.02924-1.2492 0.06396-1.6775l-0.45686 0.01462c-0.07127 0.65672-0.17178 0.86374-0.24268 1.0422-0.34264 0.06414-0.69954 0.11422-1.0351 0.14272-1.4634 0.16429-4.3831 0.34264-4.9326 0.36406-1.0065 0.04276-2.0559 0.03563-2.6984 0.04276l3.9833-3.4193c2.5056-2.2986 2.9052-2.4128 3.4336-2.8482 0.19992-0.1641 1.3349-0.86374 1.5776-1.0065-0.01827-0.25697 0.04203-0.84234 0.07858-1.2421-1.656 0.39975-2.948 0.42117-4.9967 0.47115 0 0-2.6269 0.06414-2.6269 0.06414-0.02193 0-2.1273 0.03563-3.4051-0.06414-0.12792-0.33552-0.21417-0.52111-0.28563-0.91372l-0.45686 0.02138c0.07127 0.4069 0.17178 0.94942 0.19992 1.5847 0.029239 0.61391-0.029239 1.1421-0.07127 1.4848l0.45686-0.01462c0.029239-0.2427 0.05665-0.41402 0.20687-0.93513 1.4563-0.21416 3.4264-0.34979 4.9112-0.41402 0.77812-0.02851 2.2059-0.05702 3.0339-0.07145-0.83514 0.80663-1.8989 1.8203-4.026 3.662-1.3207 1.1279-2.8055 2.4271-4.2188 3.1409v0.2213c0.021929 0.45686 0 0.83519 0 1.1635 0 0.32124-0.018274 0.59964-0.042031 0.8709 0 0 0.28563-0.0073 0.28563-0.0073 0.23556-0.22128 0.69241-0.63532 0.80663-0.72098 1.3848-0.11421 2.9767-0.21416 3.8904-0.24985zm2.1129 11.307s1.949-0.42117 1.949-0.42117c1.7631-0.37833 4.8897-1.0565 4.0331-5.0183-0.87095-3.9975-4.176-3.1909-5.7321-2.8554l-3.2196 0.69241c-1.0422 0.22843-1.9773 0.36406-2.8696 0.48542-0.15716-0.19274-0.26406-0.30695-0.47824-0.78523 0 0-0.44973 0.09283-0.44973 0.09283 0.13523 0.35693 0.34264 0.92801 0.47111 1.5276 0.13523 0.6496 0.17178 1.1707 0.17909 1.4848 0 0 0.44973-0.09996 0.44973-0.09996-0.021929-0.55678 0.042031-0.77808 0.093199-1.0136 0.70667-0.22843 2.0129-0.6496 5.8606-1.4848 1.4848-0.32124 2.2914-0.37121 3.041-0.04276 0.79237 0.3355 1.292 1.1921 1.4632 2.0059 0.51406 2.3628-1.2492 3.2837-4.4257 3.9761-1.1922 0.25697-3.5978 0.72098-4.7186 0.77094-0.19261-0.27126-0.47111-0.66387-0.61383-0.96368 0 0-0.44973 0.09283-0.44973 0.09283 0.14985 0.3926 0.34264 0.92799 0.57107 1.9988 0.19992 0.91372 0.21417 1.3349 0.22843 1.6632l0.4426-0.1c-0.018274-0.41404 0.018274-0.5568 0.10782-0.92801 0.97786-0.34977 3.0123-0.84946 4.0688-1.0779zm12.742 14.719c0.21418 0.1641 0.33552 0.23555 0.65678 0.58534l0.40679-0.19986c-0.22843-0.34265-0.50675-0.721-0.7995-1.3206-0.28544-0.57822-0.42817-1.0279-0.54238-1.392l-0.40697 0.20702c0.12061 0.54965 0.10051 0.76381 0.1133 0.95655-0.44973 0.29268-0.70667 0.464-1.6061 0.90657-1.3278 0.66387-2.0274 0.928-2.5127 1.135l-3.7976 1.5419c0.78525-0.94228 1.5919-1.8774 2.4484-2.7982l1.9488-2.0987c0.76387-0.81377 1.7346-1.7204 2.5984-2.3771l-0.27832-0.54965c-0.26425 0.057-0.55682 0.14272-1.0352 0.20701-1.599 0.2427-3.9403 0.35692-5.9033 0.47113-0.42835 0.0214-2.4985 0.057-2.9696 0.0786 2.6768-1.6918 5.5536-3.2908 7.3525-4.0689 0.32839 0.34977 0.53544 0.55678 0.7995 0.87802l0.40697-0.19988c-0.33552-0.5568-0.69241-1.1065-0.97804-1.6704-0.27832-0.57108-0.48537-1.1564-0.68529-1.6847l-0.40679 0.19989c0.07858 0.28553 0.0932 0.62103 0.10782 0.94226-1.9632 1.2992-6.339 3.9475-8.8446 5.1396-0.30701-0.1-0.5782-0.22843-0.80663-0.47828l-0.22843 0.10709c0.29988 0.47113 0.59245 0.8923 0.89946 1.5062 0 0 0.34977 0.7067 0.34977 0.7067l0.67103-0.48542 8.5447-0.4069c-0.89233 1.0708-1.2421 1.4777-2.2415 2.5413l-2.3557 2.527c-0.31395 0.34979-0.98498 1.0494-1.7061 1.6847 0 0 0.27137 0.54251 0.56395 1.1778 0.14254 0.32837 0.29275 0.67814 0.39272 1.0422l0.2213-0.10709c0.05665-0.52825 0.10782-0.72097 0.34977-1.1707l4.4829-1.7846c1.5776-0.62818 3.1766-1.2564 4.7899-1.7489zm4.4116 4.2402c-2.4628-3.2622-5.1254-1.1421-6.396-0.17854l-2.6269 1.9845c-0.84957 0.64245-1.6491 1.1564-2.4056 1.6418-0.2213-0.10708-0.36421-0.17123-0.76387-0.51396l-0.36402 0.27126c0.27119 0.27125 0.69241 0.69956 1.0636 1.1921 0.39984 0.53538 0.64965 0.98509 0.79237 1.2635l0.36402-0.27126c-0.25694-0.49255-0.28544-0.72812-0.34264-0.95655 0.54256-0.50682 1.5562-1.442 4.6899-3.8119 1.2136-0.91372 1.9274-1.2992 2.7411-1.3206 0.86383-0.0285 1.6705 0.54251 2.1772 1.2135 1.4563 1.9202 0.24268 3.4978-2.3484 5.4609-0.97091 0.73527-2.9553 2.1701-3.9476 2.684-0.2997-0.1641-0.7138-0.40688-0.97073-0.62103l-0.36421 0.27839c0.29276 0.29268 0.6926 0.69243 1.3563 1.5705 0.56394 0.74952 0.74961 1.1207 0.89946 1.4134l0.36402-0.27125c-0.18548-0.37121-0.2213-0.52111-0.29257-0.8923 0.73518-0.72812 2.3771-2.0273 3.2408-2.684l1.5919-1.1992c1.4349-1.0922 3.9833-3.0124 1.542-6.2532zm4.2473 12.271c1.1635-1.1778 2.1487-2.1058 3.0482-2.7625 0.24981 0.0857 0.32108 0.10708 0.83514 0.3926l0.32126-0.32122c-0.50693-0.44259-1.3706-1.1707-1.8417-1.6276l-1.8347-1.8131c-0.2997-0.34979-0.73518-0.83521-1.2205-1.392-0.86383 0.50682-1.1851 0.61389-2.5628 1.0136l0.32839 0.32124c1.6918-0.27126 2.5485 0.24983 3.4478 1.135 0.84957 0.84234 0.94953 1.3706 0.20705 2.27-0.53526 0.64245-2.02 2.1701-2.1701 2.32l-1.5062 1.5276c-0.76387 0.77094-1.5418 1.4919-2.427 2.0916-0.88521-0.37121-1.1421-0.62105-1.5349-0.95655l-0.32108 0.32837c0.44242 0.34977 1.0351 0.82805 1.9559 1.7418 0.64947 0.63533 0.97073 1.0351 1.2205 1.392l0.32126-0.32122c-0.27119-0.48542-0.31414-0.65675-0.39253-0.84234 0.74943-1.0565 1.656-1.9988 2.5697-2.9196 0 0 1.5562-1.5776 1.5562-1.5776zm5.2254 7.0813l1.3561-1.7632c1.0065-1.3135 1.8704-2.3485 2.677-3.1195 0.25694 0.057 0.33552 0.0714 0.87808 0.29268 0 0 0.27832-0.36406 0.27832-0.36406-0.54969-0.37833-1.5062-0.98511-2.0202-1.3849l-2.0487-1.5704c-0.34264-0.3141-0.83514-0.7424-1.3848-1.2349-0.79237 0.6139-1.0992 0.76381-2.4199 1.3277l0.36402 0.28554c1.6491-0.4854 2.5557-0.0714 3.562 0.69243 0.94953 0.73525 1.1136 1.2492 0.49268 2.2272-0.45686 0.70671-1.7417 2.4056-1.8704 2.5698 0 0-1.3062 1.7061-1.3062 1.7061-0.65678 0.85661-1.3492 1.6704-2.1487 2.37-0.92797-0.25699-1.2063-0.47115-1.6346-0.75669 0 0-0.28563 0.36407-0.28563 0.36407 0.48555 0.2998 1.1279 0.69955 2.1558 1.4919 0.7211 0.54965 1.0994 0.90657 1.3848 1.2278l0.28563-0.36406c-0.33552-0.44256-0.39984-0.61389-0.4998-0.78521 0.61402-1.135 1.3993-2.1844 2.1845-3.2123zm5.5965 0.72099c1.0778-1.7418 1.7987-2.6341 2.2413-3.1909 0.18567 0.0285 0.37846 0.0356 1.135 0.34978 0 0 0.23556-0.39262 0.23556-0.39262-0.59245-0.27839-1.0351-0.49255-1.7203-0.91372-0.62809-0.38546-1.2063-0.81377-1.7489-1.2421 0 0-0.24268 0.3926-0.24268 0.3926 0.19974 0.1641 0.64234 0.59249 0.90659 0.91372-0.4141 0.86375-0.91372 1.6918-1.4206 2.5199l-1.756 2.8268c-1.1635 1.8703-1.8989 2.7982-2.2415 3.2551-0.16447-0.0285-0.72092-0.10709-1.1992-0.31408 0 0-0.23556 0.38546-0.23556 0.38546 0.6566 0.29983 1.0992 0.52826 1.8559 0.99939 0.75674 0.47113 1.2849 0.88515 1.6133 1.1636l0.24268-0.39263c-0.40679-0.32122-0.65678-0.69956-0.82801-0.93511 0.89233-1.7703 1.3062-2.4342 1.5705-2.8554l1.5919-2.5698zm7.9734-1.2064c-1.7346-0.80665-3.0337-0.69244-3.719-0.63533-0.1133 0.28554-0.24268 0.62105-0.43548 1.0351-0.4426 0.9494-0.98517 1.8703-1.2635 2.3485-0.48537 0-0.62096-0.0356-0.76387-0.0643 0 0-0.18548 0.41402-0.18548 0.41402 0.67103 0.21416 0.97073 0.30696 1.5703 0.58535 0.56394 0.26414 0.94953 0.48542 1.4634 0.82806l0.19279-0.41402c-0.17909-0.10709-0.51406-0.32123-0.83514-0.68529 0.92797-2.2058 1.0351-2.4699 1.3276-3.0481 0.46398 0.007 1.3777 0.0285 2.2415 0.43544 2.2985 1.0636 2.7483 3.9547 1.4492 6.7601-1.6348 3.5192-4.4116 3.405-5.6965 2.8125-0.9923-0.464-2.2059-1.7132-1.9988-3.6977l-0.37828-0.17123c-0.20705 1.0565-0.69241 2.32-1.0493 3.1338l0.30683 0.14272c0.17178-0.0857 0.37846-0.15697 0.58533-0.1641 1.1851 0.9851 2.0202 1.3777 2.2843 1.4991 3.448 1.5919 6.4104-0.61391 7.6239-3.2337 1.135-2.4485 1.0208-6.1462-2.7198-7.8808zm9.4869 4.3401s0.14254-0.43544 0.14254-0.43544c-0.64252-0.12134-1.1279-0.2213-1.8989-0.47113-0.69954-0.2213-1.3634-0.49969-1.9915-0.78522 0 0-0.14254 0.43544-0.14254 0.43544 0.23556 0.11421 0.76387 0.42829 1.0994 0.67814-0.19279 0.93513-0.47824 1.8631-0.77812 2.784l-1.0137 3.1623c-0.67816 2.0987-1.1707 3.1766-1.392 3.7048-0.16447 0.007-0.72092 0.0643-1.235-0.0146 0 0-0.14254 0.42831-0.14254 0.42831 0.7138 0.1356 1.1993 0.24983 2.0487 0.52109 0.84226 0.27127 1.4563 0.54966 1.8488 0.73527 0 0 0.13523-0.43546 0.13523-0.43546-0.47111-0.20701-0.80663-0.51396-1.0279-0.70668 0.4426-1.9345 0.67816-2.6769 0.83532-3.148l0.92797-2.8768c0.62809-1.9488 1.1065-2.991 1.4062-3.6334 0.17909-0.0214 0.37115-0.0643 1.1778 0.057zm0.17854 2.784c-0.47111 2.1558 0.97091 3.4621 1.6633 4.076 1.1135 1.0065 2.063 1.856 1.7702 3.1909-0.19992 0.91371-0.92797 1.5847-2.2487 1.2992-1.6988-0.37121-1.8631-2.0416-1.963-2.4556 0 0-0.36402-0.0786-0.36402-0.0786 0.02193 0.82092-0.08589 2.0416-0.20705 2.7768 0 0 0.34264 0.0714 0.34264 0.0714l0.4426-0.22843c0.56395 0.29268 1.0636 0.5568 1.7489 0.71385 1.8203 0.3926 3.2908-0.64247 3.6477-2.2415 0.43548-2.0059-1.0208-3.355-2.3484-4.5614-0.75674-0.69243-1.2635-1.2849-1.0065-2.4342 0.29276-1.342 1.4205-2.0273 2.6269-1.7632 0.32839 0.0715 1.9345 0.50682 2.1416 2.8482 0 0 0.43548 0.0928 0.43548 0.0928 0.04203-1.8988 0.04203-1.9773 0.12792-2.6769-0.66391-0.47828-1.5349-0.80665-2.3201-0.97797-1.9773-0.4283-4.0189 0.19274-4.49 2.3485zm20.302 5.1896h-2.527v-2.2557l1.4276-1.4206-1.8987-2.1415s-1.906 2.1415-1.906 2.1415l1.4276 1.4206v2.2557h-2.484l-1.4777-1.6633s-1.8989 2.1415-1.8989 2.1415l1.8989 1.8988 1.4276-1.4205h2.5341v2.6412l-1.349 1.5134 1.9058 1.8988 1.8989-1.8988-1.5062-1.6918v-2.4627h2.6554l1.3848 1.3848s1.8989-1.906 1.8989-1.906l-1.8989-2.1344-1.5133 1.699zm15.995-72.847v18.667h-11.35c-1.0921 0.02851-6.2818 0.19274-7.6451 1.185-1.3779-0.99224-6.6816-1.1564-7.7881-1.185h-11.357v-18.667-1.2706h-0.62827v1.2706 19.295h11.971c2.6056 0.05702 6.9671 0.4069 7.5595 1.1207 0 0 0.24286 0.28554 0.24286 0.28554l0.24268-0.28554c0.59958-0.71383 4.8612-1.0636 7.4097-1.1207h11.971v-19.295-1.2706h-0.62809v1.2706zm15.697-24.271v-9.4513h-8.1591c-1.699-4.4615-4.5116-8.3948-8.1306-11.521 13.27 5.1111 23.971 15.369 29.603 28.425-3.7263-3.6406-8.2878-6.2033-13.313-7.4525zm18.481 28.432c0 13.163-10.708 23.871-23.871 23.871l-2.2057-0.11422c0.55682-1.0351 1.085-2.0773 1.5919-3.1266l1.5561 0.1c6.496 0 12.507-2.991 16.504-8.1949l-0.29988-0.32837c-2.2128 1.4063-4.7756 2.1201-7.6094 2.1201 0 0-1.5562-0.05702-1.5562-0.05702l-0.0859 0.07858c-1.5561 1.7132-3.719 2.6555-6.0961 2.6555l-0.75674-0.05007c0.38559-0.93512 0.74249-1.8774 1.0851-2.8125 1.9203-0.32123 3.819-0.96368 4.954-3.0838 0.8852 0.21416 1.7989 0.34264 2.7126 0.34264 6.2889 0 11.4-5.1111 11.4-11.4 0-6.2818-5.1111-11.4-11.4-11.4-1.3706 0-3.1194 0.39975-4.4116 0.84946v-3.1552c1.3421-0.4069 2.734-0.61391 4.1547-0.61391 2.734 0 5.3895 0.77096 7.688 2.2343 0 0 0.31414-0.32123 0.31414-0.32123l-0.10782-0.14985c-2.991-3.919-7.267-6.6459-12.05-7.6881v-2.9981c10.736 2.477 18.488 12.185 18.488 23.243zm-29.053 26.491h-5.0112c-0.4426-0.0642-0.91372-0.11422-1.4563-0.11422-0.50675 0-0.9636 0.0428-1.3777 0.11422h-13.435v-2.22h22.557c-0.4141 0.74954-0.84226 1.4919-1.2777 2.22zm-23.078 26.255c8.052-4.9255 16.397-13.47 22.757-23.385-0.12061 12.635-10.208 22.929-22.757 23.385zm-24.495-22.69c6.296 9.6083 14.412 17.867 22.272 22.679-12.107-0.68528-21.801-10.515-22.272-22.679zm3.2837-3.248c-0.86383 0.28554-1.3421 0.61391-1.3777 0.64246l-0.32126 0.22843 0.94935 1.3563h-1.7346c-0.47111-0.73525-0.9351-1.4776-1.392-2.2272h3.8762zm17.168-2.5341v2.22h-12.999c-0.41391-0.0715-0.86364-0.11422-1.3777-0.11422-0.53526 0-1.0135 0.0501-1.449 0.11422h-5.4039c-0.44242-0.72811-0.86364-1.4705-1.2777-2.22h22.507zm-25.948-0.39975c-13.163 0-23.871-10.708-23.871-23.871 0-10.893 7.531-20.473 18.025-23.121v2.9981c-4.59 1.1136-8.6874 3.7762-11.578 7.5596 0 0.0073-0.1133 0.15698-0.1133 0.15698s0.31395 0.32122 0.31395 0.32122c2.2985-1.4634 4.9613-2.2343 7.6882-2.2343 1.2564 0 2.4912 0.17123 3.6905 0.48542v3.1552c-1.2635-0.464-2.5913-0.72098-3.9476-0.72098-6.2889 0-11.4 5.1182-11.4 11.4 0 6.2889 5.111 11.4 11.4 11.4 0.91372 0 1.8274-0.12847 2.7126-0.34264 1.0422 1.9416 2.7126 2.6412 4.4615 2.991 0.34977 0.97797 0.72823 1.9631 1.1279 2.9339l-0.30701 0.02138c-2.3769 0-4.5399-0.94228-6.089-2.6555l-0.07858-0.07858s-1.5703 0.05702-1.5703 0.05702c-2.7269 0-5.3896-0.77094-7.6882-2.2343 0 0-0.30683 0.32123-0.30683 0.32123l0.14985 0.22128c3.9547 5.1468 9.9367 8.095 16.433 8.095l1.1136-0.0715c0.50675 1.0494 1.0422 2.0916 1.5917 3.1195 0 0-1.756 0.0928-1.756 0.0928zm-19.21-44.855c5.6321-13.056 16.333-23.314 29.61-28.425-3.6192 3.1266-6.4388 7.067-8.1377 11.521h-8.1164v9.4441c-5.0468 1.2421-9.6225 3.8119-13.363 7.4596zm52.674-10.814c0.44973-0.79236 0.82088-1.442 0.82088-1.442h-10.829s0.36421 0.6496 0.82106 1.442h-16.804c-0.34264-0.69956-0.77812-1.5704-1.0994-2.22h56.008v2.22h-28.918zm28.918 5.0683h-30.595v-2.113c0.01827-0.01462 0.03655-0.04989 0.06396-0.10709h30.531v2.22zm-11.45 22.807v-0.2427h-0.39966-0.39984v20.252h-19.117l-0.04934 0.34977c-0.14254 1.0779-1.2205 1.3063-2.0915 1.3063-0.87808 0-1.9488-0.22843-2.0915-1.3063l-0.04934-0.34977h-19.038c-0.01827-2.1772-0.01827-13.856-0.01827-20.252h-0.39966-0.39984v0.2427h-11.478v-2.22h15.704v1.9773 17.111h9.8082c2.6913 0.05702 7.1955 0.40688 7.788 1.1207l0.24287 0.28554 0.24268-0.28554c0.59958-0.71385 4.9825-1.0636 7.6023-1.1207h9.8011v-17.111-1.9773h15.797v2.22h-11.457zm9.7654 12.985c-0.20705 0.74239-0.42123 1.4848-0.65678 2.22h-9.1086v-2.22h9.7654zm0.6067-2.4913c-0.15715 0.72098-0.33551 1.4491-0.52831 2.1772h-9.8438v-2.1986l10.372 0.02138zm0.49962-2.577c-0.12061 0.75667-0.27119 1.5062-0.43547 2.2629l-10.436-0.02138v-2.2415h10.872zm0.34977-2.5341c-0.0786 0.74239-0.17908 1.4777-0.29969 2.2201h-10.922v-2.2201h11.222zm0.18567-2.5341c-0.0292 0.73527-0.0786 1.4777-0.14985 2.2201h-11.257v-2.2201h11.407zm0.0493-1.649c0 0.44259-0.0219 0.8923-0.0365 1.3349h-11.421v-2.2201h11.457v0.88517zm-3.2123 16.54h-8.2448v-2.22h9.0016c-0.23555 0.74239-0.49249 1.4848-0.75674 2.22zm-0.99211 2.5341h-7.2527v-2.2129h8.1235c-0.27832 0.73527-0.56394 1.4777-0.87077 2.2129zm0.91372 1.0422l0.94935 0.06433c2.4626 0 4.7042-0.97082 6.3388-2.7269 0 0 1.3993 0.04989 1.3993 0.04989 2.4698 0 4.7327-0.55678 6.7529-1.6061-3.8904 4.5115-9.4014 7.0956-15.348 7.0956 0 0-1.349-0.0857-1.349-0.0857 0.43529-0.92801 0.85652-1.856 1.2564-2.7911zm-3.2338 4.0261h-24.078v-2.22h25.163c-0.34977 0.74954-0.71397 1.4848-1.0851 2.22zm1.2207-2.5341h-25.299v-1.9988h19.145v-0.2213h7.1241c-0.30683 0.74239-0.62809 1.4848-0.97073 2.2201zm-14.627 8.6446l-1.2065 0.5782-0.82801 0.33551c-0.88521 0.37833-1.3349 0.57107-2.7126 0.51397-1.5062-0.0643-1.6275-0.12134-2.4484-0.47828l-0.74248-0.32837c-0.68529-0.31408-1.6917-0.76381-2.734-1.1279v-0.22129h12.257c-0.59976 0.21416-1.1065 0.47828-1.5847 0.72813zm-16.525-0.42c-0.79237 0.31409-1.5418 0.66388-2.1129 0.93513l-0.92797 0.42831c-0.81376 0.35692-0.94241 0.41402-2.4486 0.47828-1.3777 0.057-1.8274-0.1356-2.7126-0.51397l-0.82801-0.33551-1.2063-0.5782c-0.47111-0.24985-0.98517-0.51397-1.5776-0.72813h11.814v0.31409zm0.7995-9.23c0.48555 0.42117 1.2065 0.65674 2.1273 0.65674 0.91372 0 1.6275-0.23557 2.1129-0.6496v8.873c-0.69241-0.19988-1.3777-0.34978-1.9702-0.34978-0.7138-0.0146-1.499 0.16428-2.27 0.41402v-8.9444zm-25.912 1.3135h25.113v2.22h-24.028c-0.37115-0.73526-0.73536-1.4705-1.0851-2.22zm-0.8779 1.0137l-0.90659 0.057c-6.0462 0-11.628-2.6412-15.483-7.2312 2.1273 1.1207 4.4757 1.7418 6.8958 1.7418 0 0 1.392-0.04989 1.392-0.04989 1.6346 1.7561 3.8762 2.7269 6.3459 2.7269l0.4998-0.03563c0.39966 0.93513 0.81376 1.8631 1.2564 2.7911zm-0.22843-3.5478h7.2597c0.05665 0.2213 0.15716 0.2213 0.31414 0.2213h18.645v1.9988h-25.249c-0.34264-0.73527-0.66391-1.4777-0.97073-2.2201zm7.1597-2.527c0 1.1564 0.01827 1.8274 0.04934 2.2129h-7.3382c-0.30701-0.73525-0.59976-1.4776-0.87095-2.2129h8.1591zm-9.0443-2.5413h9.0443v1.6632 0.5568h-8.2805c-0.266-0.724-0.523-1.467-0.766-2.209zm-3.692-15.172c-0.13523 5.5323 1.0065 11.357 3.041 17.125-2.0345-0.464-3.2124-1.3206-3.969-2.8268l-0.07858-0.1641-0.17909 0.04276c-0.89946 0.23556-1.8347 0.34977-2.7627 0.34977-6.0391 0-10.943-4.9041-10.943-10.943 0-6.0319 4.9039-10.943 10.943-10.943 1.3634 0 2.6841 0.26412 3.9476 0.74954v6.6101zm0-10.722c-1.1993-0.30695-2.4341-0.47115-3.6905-0.47115-2.3842 0-4.7044 0.59964-6.803 1.6989 2.7411-3.2265 6.396-5.5537 10.493-6.5745v5.3467zm1.2564-9.5726h4.3116c-0.59264 0.87803-1.1136 1.649-1.1136 1.649h5.0825c0.03655 0.07145 0.14985 0.28554 0.29276 0.57107h-8.5732v-2.2201zm4.3259-5.0683c0.52813 0.82092 1.1136 1.7203 1.4347 2.22h-5.7606v-2.22h4.333zm4.5401-2.8482h-8.8731v-2.22h10.022l-1.1493 2.22zm-4.74 2.5341h-4.1331v-2.22h8.7159l-0.42835 0.82804h-5.0611s0.40697 0.62105 0.90659 1.392zm-4.126 2.8482h5.9677c0 0.01462 0.02193 0.03563 0.02924 0.04276-0.12792 0.19274-0.81376 1.2064-1.4704 2.1772h-4.5258v-2.22zm16.304-3.4407c-0.55682 0.86375-2.1843 3.4122-2.1843 3.4122s1.6275 2.5484 2.1843 3.4122h-4.1689s-1.1849 2.3914-1.6489 3.3265c-0.48555-0.93513-1.7203-3.3265-1.7203-3.3265h-4.0618c0.58533-0.86375 2.2487-3.3336 2.2487-3.3336s-1.699-2.6198-2.2629-3.4907h4.0761s1.2348-2.3985 1.7203-3.3265c0.46398 0.93513 1.6489 3.3265 1.6489 3.3265h4.1689zm13.998 0.59249h-13.434c0.49249-0.77094 0.89215-1.392 0.89215-1.392h-5.1252c-0.04934-0.09996-0.20705-0.41402-0.4141-0.82804h16.825c0.45686 0.81377 0.96379 1.7132 1.2564 2.22zm-13.976 22.944c1.0493 0.22128 4.1474 0.84234 6.3032 0.84234 2.5484 0 5.2182-0.39975 5.2396-0.39975 3.3193-0.464 4.9827 0.83519 5.3538 1.1707v18.032c-1.7562-0.83519-6.6387-0.9851-7.7167-1.0065h-9.1799v-18.638zm-16.333-2.356h13.606v0.03563s0.02193-0.01462 0.05665-0.03563h16.882v2.1701c-0.77081-0.11421-1.6703-0.14272-2.7554 0.0073-0.02924 0-2.6483 0.39262-5.1539 0.39262-2.4985 0-6.5102-0.89944-6.553-0.90659l-0.37846-0.08571v0.64245h-15.704v-2.22zm0-5.3824v-2.22h13.606v2.22h-13.606zm0 2.5341v-2.22h13.606v2.22h-13.606zm0 0.3141h13.606v2.22h-13.606v-2.22zm13.606-7.6024v2.2201h-13.606v-2.2201h10.044c0.27119 0.51396 0.45686 0.87802 0.45686 0.87802s0.17909-0.36406 0.43548-0.87802h2.6626zm16.939 9.8224h-16.326c1.1136-0.63531 3.3837-1.9274 3.5193-2.0059h12.806v2.0059zm-13.242-7.603c-0.97073-0.59249-3.1909-1.9559-3.619-2.2201h16.861v2.2201h-13.242zm13.242-4.7542v2.2201h-19.445c0.34264-0.69958 0.77812-1.5705 1.0994-2.2201h18.346zm-13.827-2.534h13.827v2.2201h-18.189c0.13523-0.28554 0.24268-0.49969 0.28563-0.57107h5.1252s-0.48537-0.76381-1.0493-1.649zm-1.463-2.848c0.29988-0.47113 0.88521-1.3848 1.4206-2.22h13.813c0.02924 0.05702 0.04934 0.09283 0.05665 0.10709v2.113h-15.29zm15.29 0.3141v2.22h-14.034c-0.61383-0.97082-1.2635-1.9773-1.4205-2.22h15.455zm-30.538 5.0683h8.7373c0.33552 0.6496 0.78525 1.5205 1.1493 2.2201h-9.8866v-2.2201zm0.02924 19.959c-0.02193-0.44259-0.03655-0.87803-0.03655-1.3206v-0.89944h11.478v2.2201h-11.443zm0.15716 2.5341c-0.07127-0.74239-0.12244-1.4848-0.14985-2.2201h11.436v2.2201h-11.286zm0.33533 2.5341c-0.12061-0.74239-0.22112-1.4777-0.2997-2.2201h11.25v2.2201h-10.95zm10.95 2.5555l-10.465 0.02138c-0.16447-0.75667-0.30701-1.5062-0.43548-2.2629h10.9v2.1701 0.07145zm-9.8723 2.5127c-0.19279-0.7281-0.37115-1.4562-0.52831-2.1772l10.401-0.02138v2.1986h-9.8723zm0.07858 0.3141h9.7938v2.22h-9.1443c-0.23556-0.73525-0.45686-1.4776-0.6566-2.22zm65.295-33.258h-30.595v-2.22h30.595v2.22zm0 2.5341h-30.595v-2.2201h30.595v2.2201zm0 2.5341h-30.595v-2.2201h30.595v2.2201zm0 2.5341h-13.656v-2.2201h13.656v2.2201zm0 2.5341h-13.656v-2.22h13.656v2.22zm0 2.5341h-13.656v-2.22h13.656v2.22zm0 2.5341h-13.656v-2.22h13.656v2.22zm-30.595 0v-2.0059h12.814c0.12792 0.07858 2.4056 1.3706 3.5191 2.0059h-16.333zm0-7.6024v-2.2201h16.861c-0.42122 0.26412-2.6483 1.6276-3.6192 2.2201h-13.242zm14.177 10.272v18.638h-9.173c-1.0564 0.02138-5.7964 0.17123-7.531 1.0065v-18.046c0.31414-0.32837 1.7918-1.6204 5.161-1.1564 0.02193 0 2.6913 0.39975 5.2396 0.39975 2.1558 0 5.2539-0.62105 6.3034-0.84234zm16.425-0.1356h-15.797v-0.64245s-0.37828 0.08571-0.37828 0.08571c-0.04203 0.0073-4.0547 0.90659-6.5532 0.90659-2.5056 0-5.1254-0.39262-5.1539-0.39262-1.0778-0.14985-1.963-0.12134-2.7198-0.0073v-2.1701h16.882c0.0365 0.02138 0.0566 0.03563 0.0566 0.03563v-0.03563h13.656v2.22zm-31.402-22.592v13.527h13.834s2.2627-1.392 3.1052-1.906v7.4097c-0.82819-0.47113-3.1196-1.7774-3.1196-1.7774h-13.82v5.4537c-1.0849 0.29981-1.7417 0.78523-2.0487 1.0708-0.32821-0.28554-1.0422-0.77808-2.1915-1.0779v-5.4466h-13.82s-2.2843 1.3063-3.1194 1.7774v-7.4097c0.84226 0.51396 3.1123 1.906 3.1123 1.906h13.827v-13.527s-1.4347-2.5341-1.9203-3.3907h8.0807c-0.47824 0.85661-1.9203 3.3907-1.9203 3.3907zm31.395-0.21416h-30.352c0.28544-0.50682 0.7995-1.4063 1.2564-2.22h29.096v2.22zm-60.295 51.005h23.864v2.2129h-22.686c-0.40697-0.73527-0.7995-1.4705-1.178-2.2129zm47.87 6.1604c-0.41391 0.57822-2.6054 3.7048-2.9052 4.1403-0.23556-0.1-0.57107-0.24272-0.57107-0.24272l-0.07858 0.007c-2.0058 0.007-3.0408 0.57108-4.0474 1.1136 0 0-1.1778 0.5782-1.1778 0.5782l-0.82106 0.33552c-0.89215 0.37833-1.3348 0.57107-2.7196 0.51396-1.5064-0.0643-1.6277-0.12134-2.4414-0.47827l-0.92797-0.41404c-1.3634-0.62104-3.6406-1.6632-5.2254-1.6632-1.7275 0-3.6834 0.94941-4.9754 1.5776l-1.078 0.49969c-0.81376 0.35691-0.94222 0.41402-2.4484 0.47827-1.3777 0.057-1.8274-0.13559-2.7126-0.51396l-0.82801-0.33552s-1.1778-0.5782-1.1778-0.5782c-0.99942-0.54252-2.0416-1.1064-4.0404-1.1136l-0.08589-0.007s-0.33533 0.14273-0.56376 0.24272c-0.30701-0.43544-2.4985-3.5621-2.9126-4.1403 0.52831-0.27126 1.6562-0.72812 3.355-0.72812 1.7419 0 2.7698 0.54253 3.7691 1.0636l1.2922 0.61389 0.7995 0.32837c0.9351 0.39975 1.499 0.64245 3.0624 0.57821 1.6061-0.0714 1.8274-0.14984 2.7267-0.54252l0.95666-0.44259c1.1564-0.54965 3.3051-1.5776 4.8255-1.5562 1.5347 0.0146 4.0046 1.1279 5.1968 1.6633l0.7423 0.3355c0.90659 0.39262 1.1279 0.47113 2.734 0.54252 1.5634 0.0641 2.1273-0.17854 3.0624-0.57821l0.80663-0.32837 1.2849-0.61389c0.99942-0.52111 2.0274-1.0636 3.7691-1.0636 1.699 0 2.8269 0.45686 3.355 0.72812zm-0.18548 3.662h-1.4062l1.5561-2.2272h1.3563c-0.49249 0.75666-0.99229 1.4919-1.5062 2.2272zm-1.8346 2.527h-6.1676l0.97073-0.464c0.94241-0.51397 1.8417-0.99937 3.5907-1.0208 0.14254 0.057 0.99924 0.42117 0.99924 0.42117l0.80681-1.1493h1.4133c-0.52118 0.74954-1.0636 1.4919-1.6133 2.2129zm-23.535 0h0.01828c1.2279-0.59962 3.0838-1.4991 4.6256-1.4991 1.3421 0 3.3765 0.89944 4.697 1.4991h-9.3369zm-14.37-2.2129l0.81376 1.1493s0.8567-0.36406 0.99942-0.42117c1.7489 0.0214 2.6483 0.50682 3.5905 1.0208l0.97091 0.464h-6.5532c-0.54951-0.72098-1.0849-1.4634-1.6133-2.2129h1.7918zm-3.5193-2.5413h1.7417l1.5634 2.2272h-1.7989c-0.51387-0.73527-1.0208-1.4705-1.5062-2.2272zm39.425 7.2883h-14.684c-0.89946-0.28553-1.7704-0.50682-2.3914-0.50682-0.7138 0-1.5776 0.22129-2.427 0.50682h-14.584c-0.59245-0.72097-1.1778-1.4634-1.7562-2.2129h7.0172l0.39966 0.15698c0.93528 0.39975 1.4992 0.64245 3.0624 0.57822 1.6061-0.0714 1.8274-0.14985 2.734-0.54253l0.4141-0.19274h10.715l0.4353 0.19274c0.89946 0.39261 1.1208 0.47113 2.7269 0.54253 1.5634 0.0641 2.1273-0.17854 3.0695-0.57822l0.39272-0.15698h6.6316c-0.57107 0.74954-1.1564 1.4919-1.7562 2.2129zm-2.1414 2.5413h-2.1487c0.90659-0.99223 1.599-1.7489 1.599-1.7489l-0.32126-0.47113h2.7554c-0.62096 0.74954-1.2492 1.4919-1.8844 2.22zm-2.3486 2.527h-2.1416c0.66391-0.71385 1.392-1.5062 2.0487-2.2129h2.1558c-0.68529 0.75667-1.3706 1.4991-2.063 2.2129zm-2.5626 2.5413h-1.9203c0.0932-0.0928 0.19974-0.19987 0.30683-0.32837 0 0 0.77099-0.82805 1.749-1.8917h2.1271c-0.74943 0.76381-1.499 1.4991-2.2627 2.22zm-19.966-2.22s1.7631 1.906 1.7631 1.906c0.10051 0.12134 0.19992 0.22128 0.29275 0.31408h-2.0701c-0.76387-0.72098-1.5135-1.4562-2.2558-2.22h2.27zm-2.3344-2.5341s2.0487 2.2129 2.0487 2.2129h-2.2843c-0.69954-0.71385-1.3848-1.4562-2.063-2.2129h2.2985zm-0.28544-0.31409h-2.2985c-0.64252-0.72811-1.2706-1.4705-1.8918-2.22h2.9054l-0.32126 0.47113 1.6061 1.7489zm7.3382-1.3777l-0.87095 0.3926c-0.80663 0.35692-0.9351 0.41402-2.4413 0.47828-1.4062 0.057-2.3629-0.45686-3.4834-1.0565l-1.3706-0.65674h10.108c-0.7423 0.29268-1.4349 0.60676-1.9416 0.84234zm10.979 6.446h-11.286l1.1637-0.54251c1.2706-0.62106 2.8481-1.392 4.4257-1.3849 1.699 0.007 3.2837 0.78523 4.5614 1.3991l1.135 0.52824zm-2.4555-7.2883h10.308l-1.3706 0.65674c-1.1136 0.59962-2.0772 1.1136-3.4836 1.0565-1.5062-0.0643-1.6275-0.12135-2.4413-0.47828l-0.48537-0.21416c-0.54256-0.23555-1.5062-0.64957-2.527-1.0208zm2.2128 1.756l0.47824 0.20701c0.90659 0.39975 1.1208 0.47828 2.7269 0.54251 1.5062 0.0643 2.6056-0.46398 3.6477-1.0136-1.656 1.7989-4.5543 4.9398-4.5543 4.9398-0.54969 0.64959-0.70667 0.57822-1.5776 0.19274l-1.2564-0.57822c-1.3563-0.65672-3.0408-1.4776-4.9112-1.4848-1.7702-0.007-3.4407 0.80665-4.7828 1.4634 0 0-1.2991 0.59962-1.2991 0.59962-0.87095 0.38548-1.0279 0.45685-1.5705-0.17854 0-0.007-2.791-3.0338-4.5615-4.954 1.0424 0.54965 2.1416 1.0779 3.6477 1.0136 1.6061-0.0641 1.8274-0.14272 2.7269-0.54251l0.88521-0.39261c1.2065-0.5568 3.4478-1.599 4.8898-1.599 1.3848 0 4.49 1.342 5.5108 1.7846zm1.6776 8.0664h-14.313c-0.83514-0.7067-1.6703-1.4491-2.4983-2.2272h2.2057c0.3854 0.17854 0.7423 0.14272 1.135 0h12.778c0.3854 0.14272 0.74943 0.17854 1.135 0h2.0559c-0.82819 0.77808-1.6633 1.5205-2.4985 2.2272zm-3.214 2.51h-7.8879c-0.94953-0.69956-1.8918-1.442-2.834-2.22h13.556c-0.94222 0.77808-1.8844 1.5205-2.8338 2.22zm-3.9476 2.6269c-1.1635-0.69243-2.3342-1.4705-3.505-2.32h7.0243c-1.1778 0.84946-2.3486 1.6276-3.5193 2.32zm22.593-22.9h-1.3421l0.94935-1.3563-0.32108-0.22843c-0.0292-0.0285-0.51406-0.35691-1.3777-0.64245h3.4906c-0.44973 0.74954-0.92084 1.4919-1.3991 2.2272zm3.0408-5.0754h-22.736v-2.2129h23.914c-0.37846 0.74239-0.77099 1.4776-1.178 2.2129zm9.1086-27.547v-6.4745c1.2635-0.45686 3.041-0.87802 4.4116-0.87802 6.0391 0 10.943 4.9112 10.943 10.943 0 6.0391-4.9041 10.943-10.943 10.943-0.92797 0-1.8631-0.11422-2.7625-0.34977l-0.17909-0.04276-0.0859 0.1641c-0.80663 1.6276-2.1271 2.4842-4.4544 2.9196 2.0559-5.7964 3.2051-11.664 3.0695-17.225zm0-16.183c4.2831 0.96368 8.1021 3.3408 10.957 6.6887-2.0986-1.0922-4.4187-1.6918-6.8028-1.6918-1.4135 0-2.8126 0.20701-4.1547 0.59964v-5.5965zm-1.25-16.852v2.2986h-56.165c-0.18567-0.37833-0.30701-0.62103-0.30701-0.62103l-0.32126 0.62103h-10.186v-2.2986h66.98zm-52.421-1.256c1.4206-2.7626 3.0909-4.8969 5.1826-6.6102-0.97091 1.8703-1.4634 4.0118-1.5349 6.6102h-3.6477zm34.643 0c-0.06396-2.5984-0.55682-4.7328-1.5277-6.6102 2.0844 1.7132 3.7548 3.8476 5.1755 6.6102h-3.6477zm-15.405-14.813c9.6296 0 18.331 5.9249 21.915 14.812h-2.3486c-1.6418-3.2551-3.6121-5.675-6.1676-7.5667 0 0-0.03655 0.05702-0.03655 0.05702-0.02924-0.04276-0.04203-0.07858-0.07127-0.11421l-0.3854 0.2427c1.3276 2.063 1.963 4.3687 2.0416 7.3811h-2.6127c-0.34264-6.9028-5.7679-12.407-12.421-12.407v0.45686c6.396 0 11.621 5.3038 11.964 11.95h-23.942c0.33552-6.6459 5.568-11.95 11.964-11.95v-0.45686c-6.6458 0-12.078 5.5037-12.421 12.407h-2.6127c0.07858-3.0124 0.71379-5.3181 2.0416-7.3811l-0.3854-0.2427c-0.02193 0.03563-0.04203 0.07145-0.06396 0.11421 0 0-0.04203-0.05702-0.04203-0.05702-2.5628 1.8917-4.5258 4.3116-6.1605 7.5667h-2.1772c3.5834-8.8873 12.278-14.812 21.922-14.812zm17.182 2.3842l-0.20705 0.44971c3.9619 3.148 6.9958 7.2883 8.8161 11.978h-3.3837c-3.605-9.1514-12.535-15.269-22.407-15.269-9.8868 0-18.81 6.1176-22.415 15.269h-4.026c1.8203-4.6899 4.8542-8.8302 8.8159-11.978l-0.19974-0.44971c-14.198 5.0897-25.627 16.004-31.366 29.931 0 0-0.16447 0.3926-0.16447 0.3926l0.67816-0.1356s0.04934-0.04989 0.04934-0.04989c3.7406-3.8405 8.4234-6.5102 13.584-7.7951v4.3758c-10.75 2.6555-18.481 12.449-18.481 23.592 0 13.42 10.915 24.328 24.328 24.328l1.9988-0.10708c0.94935 1.7346 1.9559 3.4407 3.0195 5.1111 0.10782 13.006 10.579 23.585 23.542 23.878 0 0.007 0 0.007 0.01827 0.0146l0.31414 0.18559 0.32126-0.18559c13.235-0.0499 23.999-10.836 23.999-24.092 0 0-0.0183-0.48542-0.0183-0.48542 0.91371-1.4562 1.7845-2.941 2.6056-4.4472l2.4484 0.12846c13.413 0 24.328-10.907 24.328-24.328 0-11.3-7.9522-21.23-18.945-23.714v-4.2474c5.1396 1.292 9.8082 3.9618 13.542 7.788 0 0 0.042 0.04989 0.042 0.04989l0.68529 0.1356-0.16447-0.39261c-5.74-13.928-17.18-24.835-31.37-29.925zm-66.052 71.437c5.2109 4.5543 11.857 7.0813 18.888 7.1313 0.64252 7.8094 3.4908 14.655 8.0522 19.488-11.821-5.1825-21.537-14.784-26.94-26.619zm19.302 6.6816h-0.20705c-7.374 0-14.348-2.7483-19.631-7.738 0 0-0.07858 0.0786-0.15716 0.1641-0.10782 0.0428-0.20705 0.0928-0.20705 0.0928 5.5037 12.763 15.976 23.093 28.732 28.339 0 0 0.24268-0.37119 0.24268-0.37119-5.0112-4.8184-8.1235-12.021-8.7518-20.273l-0.02193-0.21416zm50.79 20.38c4.547-5.211 7.074-11.857 7.1241-18.895 7.8093-0.63532 14.655-3.4835 19.488-8.045-5.1826 11.821-14.784 21.537-26.612 26.94zm6.8885-19.324l-0.20705 0.0146v0.21416c0 7.374-2.7554 14.348-7.7452 19.631 0 0 0.0786 0.0786 0.16447 0.15698 0.042 0.10708 0.0859 0.20701 0.0859 0.20701 12.771-5.5037 23.107-15.976 28.354-28.732l-0.37846-0.24272c-4.8184 5.0112-12.021 8.1164-20.273 8.7517zm-28.197 29.303c-32.073 0-58.171-26.098-58.171-58.171 0-32.08 26.098-58.178 58.171-58.178 32.08 0 58.178 26.098 58.178 58.178 0 32.073-26.098 58.171-58.178 58.171zm0-117.61c-32.772 0-59.427 26.662-59.427 59.434 0 32.765 26.655 59.427 59.427 59.427s59.434-26.662 59.434-59.427c0-32.772-26.662-59.434-59.434-59.434zm0.0071 138.2c-43.423 0-78.744-35.321-78.744-78.744s35.321-78.744 78.744-78.744 78.744 35.321 78.744 78.744-35.321 78.744-78.744 78.744zm0-158.74c-44.115 0-80 35.892-80 80 0 44.115 35.885 80 80 80 44.108 0 80-35.885 80-80 0-44.108-35.892-80-80-80z" fill="#0c2340"/>
 </g>
</svg>
