<svg version="1.1" xmlns="http://www.w3.org/2000/svg" viewBox="0 0 144 144">
<path d="M0 0 C3.70204363 1.63423548 6.15504926 4.04293013 8.9765625 6.8984375 C9.53472656 7.424375 10.09289062 7.9503125 10.66796875 8.4921875 C14.55711227 12.3717282 14.55711227 12.3717282 14.75 15.7421875 C13.27069266 18.84168859 11.39565624 20.59520471 8.8515625 22.8984375 C4.8059784 26.75438485 2.22783252 30.22288452 -0.26171875 35.17578125 C-2.62043957 39.26909401 -6.06789209 41.52052738 -10.31194973 43.52338028 C-13.41905513 45.15929283 -15.39205195 46.78559777 -17.84474182 49.27435303 C-18.67876526 50.11292343 -19.5127887 50.95149384 -20.37208557 51.81547546 C-21.26838181 52.7319838 -22.16467804 53.64849213 -23.08813477 54.59277344 C-24.05556748 55.57088516 -25.02371631 56.54828903 -25.99252319 57.52503967 C-28.07067983 59.622788 -30.14421624 61.72496097 -32.21438789 63.83058929 C-35.48735666 67.15856704 -38.77345758 70.47336612 -42.06199646 73.78594971 C-51.40872324 83.20504203 -60.73749418 92.64180153 -70.0534668 102.09130859 C-75.20386137 107.31529469 -80.36493991 112.52848565 -85.53775448 117.73027444 C-88.81043657 121.02260148 -92.06913118 124.32799774 -95.31817448 127.64364672 C-97.33891964 129.69952295 -99.37203921 131.74279991 -101.40891647 133.78268242 C-102.80292421 135.18622821 -104.18184549 136.60470728 -105.56031799 138.02351379 C-106.80712341 139.26445045 -106.80712341 139.26445045 -108.07911682 140.53045654 C-108.79677499 141.25754192 -109.51443316 141.9846273 -110.25383854 142.73374557 C-112.3984375 144.1484375 -112.3984375 144.1484375 -115.06307888 143.9455452 C-118.83052037 142.65963708 -121.02092633 140.18411145 -123.7734375 137.3984375 C-124.33160156 136.8725 -124.88976562 136.3465625 -125.46484375 135.8046875 C-127.046875 134.2265625 -127.046875 134.2265625 -129.3984375 131.1484375 C-129.36790474 127.58119308 -128.6680492 126.47702676 -126.3984375 123.7109375 C-124.16753093 121.27542805 -124.16753093 121.27542805 -123.8984375 118.0859375 C-123.27239541 114.40794024 -122.42550498 113.29924861 -119.3984375 111.1484375 C-117.07025786 110.78083019 -114.736599 110.44602169 -112.3984375 110.1484375 C-110.3984375 109.1484375 -110.3984375 109.1484375 -109.3984375 107.1484375 C-109.2540625 106.0140625 -109.1096875 104.8796875 -108.9609375 103.7109375 C-108.3984375 100.1484375 -108.3984375 100.1484375 -106.8984375 97.8984375 C-104.4089072 96.15576629 -102.66066351 95.58111809 -99.7734375 94.7734375 C-97.40162209 94.14011263 -97.40162209 94.14011263 -95.3984375 93.1484375 C-94.17323486 90.13996332 -94.17323486 90.13996332 -93.3984375 87.1484375 C-91.417179 86.42797986 -89.41339657 85.76842491 -87.3984375 85.1484375 C-84.05155701 82.63634475 -81.7515171 80.30855617 -80.5234375 76.2734375 C-80.4821875 75.5721875 -80.4409375 74.8709375 -80.3984375 74.1484375 C-79.0990625 73.8390625 -79.0990625 73.8390625 -77.7734375 73.5234375 C-73.64696983 71.842284 -71.05551825 69.71153922 -68.3984375 66.1484375 C-67.44955145 63.4340328 -67.44955145 63.4340328 -67.3984375 61.1484375 C-66.53041504 60.93525879 -65.66239258 60.72208008 -64.76806641 60.50244141 C-60.76877779 58.89542397 -58.37226184 56.56271133 -55.484375 53.484375 C-54.94745026 52.93230377 -54.41052551 52.38023254 -53.85733032 51.81143188 C-52.15266214 50.05814129 -50.46163887 48.29258003 -48.7734375 46.5234375 C-46.54274383 44.18646007 -44.29921244 41.86297744 -42.046875 39.546875 C-41.53949799 39.00630463 -41.03212097 38.46573425 -40.5093689 37.90878296 C-39.05224609 36.41162109 -39.05224609 36.41162109 -36.3984375 34.1484375 C-35.0784375 34.1484375 -33.7584375 34.1484375 -32.3984375 34.1484375 C-32.98522081 37.66913735 -33.75493671 39.86143593 -35.3984375 43.1484375 C-31.9334375 46.6134375 -31.9334375 46.6134375 -28.3984375 50.1484375 C-24.3900341 48.1442358 -22.98434093 46.65787787 -20.3984375 43.1484375 C-21.3265625 42.6740625 -22.2546875 42.1996875 -23.2109375 41.7109375 C-26.78162009 39.31069243 -27.93391789 36.59518579 -29.05078125 32.515625 C-29.74328324 27.80038672 -28.72392006 24.28789089 -26.234375 20.26953125 C-23.0006093 16.08731471 -19.50757014 14.0115188 -14.8359375 11.68359375 C-10.8216543 9.15536731 -7.87803847 5.60079546 -4.7578125 2.0625 C-2.3984375 0.1484375 -2.3984375 0.1484375 0 0 Z M-3.9609375 8.5234375 C-6.62525453 10.79567159 -6.62525453 10.79567159 -6.3984375 13.1484375 C-5.25375 13.798125 -5.25375 13.798125 -4.0859375 14.4609375 C-1.07915201 16.34891909 0.00011177 18.02982292 1.6015625 21.1484375 C5.00218264 19.74128434 6.49385948 18.11975522 8.6015625 15.1484375 C7.12542265 13.64545874 5.64557093 12.14612465 4.1640625 10.6484375 C3.34035156 9.813125 2.51664063 8.9778125 1.66796875 8.1171875 C-1.05634013 5.42653579 -1.05634013 5.42653579 -3.9609375 8.5234375 Z M-22.3359375 23.3984375 C-23.85944461 27.34163238 -23.86896431 29.91369621 -23.3984375 34.1484375 C-22.06510417 36.81510417 -22.06510417 36.81510417 -19.3984375 38.1484375 C-15.03519603 38.63324211 -12.57428312 38.67103555 -8.5859375 36.8984375 C-4.92282832 33.96795016 -3.3348423 31.78820404 -2.5859375 27.1484375 C-2.29740697 23.91449112 -2.27838353 21.77326622 -4.3984375 19.1484375 C-10.90165788 14.66345793 -17.63123072 17.93490705 -22.3359375 23.3984375 Z M-41.3984375 46.1484375 C-47.3384375 52.0884375 -53.2784375 58.0284375 -59.3984375 64.1484375 C-57.92455046 68.20103921 -57.92455046 68.20103921 -55.33984375 68.9765625 C-54.55480469 69.11578125 -53.76976563 69.255 -52.9609375 69.3984375 C-52.17847656 69.54796875 -51.39601563 69.6975 -50.58984375 69.8515625 C-48.27153415 70.21556054 -48.27153415 70.21556054 -45.3984375 70.1484375 C-43.68932724 68.85446486 -43.68932724 68.85446486 -42.04296875 67.0859375 C-41.42099609 66.45429687 -40.79902344 65.82265625 -40.15820312 65.171875 C-39.51560547 64.50414063 -38.87300781 63.83640625 -38.2109375 63.1484375 C-37.55673828 62.48070313 -36.90253906 61.81296875 -36.22851562 61.125 C-34.61157615 59.47265309 -33.00203259 57.81372149 -31.3984375 56.1484375 C-32.30966477 55.03977765 -33.22770409 53.93671531 -34.1484375 52.8359375 C-34.65890625 52.22105469 -35.169375 51.60617188 -35.6953125 50.97265625 C-37.63437191 48.78887934 -37.63437191 48.78887934 -41.3984375 46.1484375 Z M-64.3984375 69.1484375 C-67.0384375 71.7884375 -69.6784375 74.4284375 -72.3984375 77.1484375 C-70.92455046 81.20103921 -70.92455046 81.20103921 -68.33984375 81.9765625 C-67.55480469 82.11578125 -66.76976562 82.255 -65.9609375 82.3984375 C-65.17847656 82.54796875 -64.39601563 82.6975 -63.58984375 82.8515625 C-61.27153415 83.21556054 -61.27153415 83.21556054 -58.3984375 83.1484375 C-58.0684375 82.1584375 -57.7384375 81.1684375 -57.3984375 80.1484375 C-58.0584375 80.1484375 -58.7184375 80.1484375 -59.3984375 80.1484375 C-59.43710938 79.20871094 -59.43710938 79.20871094 -59.4765625 78.25 C-59.53328125 77.43273437 -59.59 76.61546875 -59.6484375 75.7734375 C-59.69484375 74.96132812 -59.74125 74.14921875 -59.7890625 73.3125 C-59.99015625 72.59835938 -60.19125 71.88421875 -60.3984375 71.1484375 C-61.7184375 70.4884375 -63.0384375 69.8284375 -64.3984375 69.1484375 Z M-55.3984375 73.1484375 C-55.3984375 74.1384375 -55.3984375 75.1284375 -55.3984375 76.1484375 C-54.0784375 75.8184375 -52.7584375 75.4884375 -51.3984375 75.1484375 C-51.7284375 74.4884375 -52.0584375 73.8284375 -52.3984375 73.1484375 C-53.3884375 73.1484375 -54.3784375 73.1484375 -55.3984375 73.1484375 Z M-77.3984375 82.1484375 C-80.0384375 84.7884375 -82.6784375 87.4284375 -85.3984375 90.1484375 C-83.92455046 94.20103921 -83.92455046 94.20103921 -81.33984375 94.9765625 C-80.55480469 95.11578125 -79.76976562 95.255 -78.9609375 95.3984375 C-78.17847656 95.54796875 -77.39601563 95.6975 -76.58984375 95.8515625 C-74.27153415 96.21556054 -74.27153415 96.21556054 -71.3984375 96.1484375 C-71.0684375 95.1584375 -70.7384375 94.1684375 -70.3984375 93.1484375 C-71.0584375 93.1484375 -71.7184375 93.1484375 -72.3984375 93.1484375 C-72.43710938 92.20871094 -72.43710938 92.20871094 -72.4765625 91.25 C-72.53328125 90.43273437 -72.59 89.61546875 -72.6484375 88.7734375 C-72.69484375 87.96132812 -72.74125 87.14921875 -72.7890625 86.3125 C-72.99015625 85.59835938 -73.19125 84.88421875 -73.3984375 84.1484375 C-74.7184375 83.4884375 -76.0384375 82.8284375 -77.3984375 82.1484375 Z M-68.3984375 86.1484375 C-68.3984375 87.1384375 -68.3984375 88.1284375 -68.3984375 89.1484375 C-67.0784375 88.8184375 -65.7584375 88.4884375 -64.3984375 88.1484375 C-64.7284375 87.4884375 -65.0584375 86.8284375 -65.3984375 86.1484375 C-66.3884375 86.1484375 -67.3784375 86.1484375 -68.3984375 86.1484375 Z M-90.3984375 95.1484375 C-91.3884375 96.4684375 -92.3784375 97.7884375 -93.3984375 99.1484375 C-93.0684375 99.8084375 -92.7384375 100.4684375 -92.3984375 101.1484375 C-92.00727341 104.74714712 -91.92002391 106.49283369 -94.0859375 109.4609375 C-97.55071602 111.98928939 -100.0020994 112.36564565 -104.2109375 111.7109375 C-104.9328125 111.5253125 -105.6546875 111.3396875 -106.3984375 111.1484375 C-108.16145988 113.84482467 -108.44044994 114.89636286 -107.8984375 118.1484375 C-107.3984375 121.1484375 -107.3984375 121.1484375 -108.0859375 123.3984375 C-109.77995848 125.65713214 -110.6607229 126.35594117 -113.3984375 127.1484375 C-116.1262211 127.00734524 -118.69454049 126.599087 -121.3984375 126.1484375 C-122.3884375 127.6334375 -122.3884375 127.6334375 -123.3984375 129.1484375 C-120.4284375 132.1184375 -117.4584375 135.0884375 -114.3984375 138.1484375 C-108.10734019 132.98558576 -102.36471278 127.30087359 -96.61645508 121.55175781 C-94.94564727 119.88316757 -93.26695578 118.22277602 -91.58789062 116.5625 C-90.52555433 115.50309262 -89.46368765 114.44321408 -88.40234375 113.3828125 C-87.64782677 112.63907379 -87.64782677 112.63907379 -86.87806702 111.88031006 C-84.18085149 109.47150311 -84.18085149 109.47150311 -83.3984375 106.1484375 C-84.0584375 106.1484375 -84.7184375 106.1484375 -85.3984375 106.1484375 C-85.42421875 105.52195312 -85.45 104.89546875 -85.4765625 104.25 C-85.53328125 103.43273437 -85.59 102.61546875 -85.6484375 101.7734375 C-85.69484375 100.96132812 -85.74125 100.14921875 -85.7890625 99.3125 C-86.1906467 96.96004823 -86.1906467 96.96004823 -88.4453125 95.859375 C-89.08984375 95.62476562 -89.734375 95.39015625 -90.3984375 95.1484375 Z M-81.3984375 99.1484375 C-81.3984375 100.1384375 -81.3984375 101.1284375 -81.3984375 102.1484375 C-80.0784375 101.8184375 -78.7584375 101.4884375 -77.3984375 101.1484375 C-77.7284375 100.4884375 -78.0584375 99.8284375 -78.3984375 99.1484375 C-79.3884375 99.1484375 -80.3784375 99.1484375 -81.3984375 99.1484375 Z M-102.3984375 101.1484375 C-102.78062517 102.80458407 -103.11238852 104.47300774 -103.3984375 106.1484375 C-102.33198635 107.44477371 -102.33198635 107.44477371 -99.8359375 107.2109375 C-99.0315625 107.1903125 -98.2271875 107.1696875 -97.3984375 107.1484375 C-96.38732657 104.09930522 -96.38732657 104.09930522 -97.3984375 101.1484375 C-99.0484375 101.1484375 -100.6984375 101.1484375 -102.3984375 101.1484375 Z M-117.3984375 116.1484375 C-117.7284375 117.7984375 -118.0584375 119.4484375 -118.3984375 121.1484375 C-116.51527591 122.25680173 -116.51527591 122.25680173 -114.3984375 123.1484375 C-113.7384375 122.8184375 -113.0784375 122.4884375 -112.3984375 122.1484375 C-112.3984375 120.4984375 -112.3984375 118.8484375 -112.3984375 117.1484375 C-114.0484375 116.8184375 -115.6984375 116.4884375 -117.3984375 116.1484375 Z " fill="white" transform="translate(129.3984375,-0.1484375)"/>
<path d="M0 0 C2.0625 0.4375 2.0625 0.4375 4 1 C4.625 2.875 4.625 2.875 5 5 C4.34 5.66 3.68 6.32 3 7 C0.375 6.625 0.375 6.625 -2 6 C-1.125 1.125 -1.125 1.125 0 0 Z " fill="white" transform="translate(115,24)"/>
</svg>
